<svg width="24" height="24" viewBox="0 0 24 24" fill="none" xmlns="http://www.w3.org/2000/svg">
<g clip-path="url(#clip0_1871_2724)">
<path d="M23.0765 11.0769H3.15193L12.6504 1.57387C12.8223 1.40092 12.9188 1.16696 12.9188 0.923099C12.9188 0.679236 12.8223 0.44528 12.6504 0.27233C12.4774 0.100406 12.2435 0.00390625 11.9996 0.00390625C11.7558 0.00390625 11.5218 0.100406 11.3488 0.27233L0.271927 11.3493C0.228263 11.3925 0.189562 11.4405 0.156542 11.4923C0.141837 11.5069 0.127968 11.5223 0.115004 11.5385C0.115004 11.5708 0.082696 11.5985 0.0688499 11.6308L0.0411576 11.7231C0.0385043 11.7492 0.0385043 11.7755 0.0411576 11.8016C0.0175308 11.9204 0.0175308 12.0427 0.0411576 12.1616C0.0385043 12.1876 0.0385043 12.2139 0.0411576 12.24L0.0688499 12.3323C0.0688499 12.3646 0.101158 12.3923 0.115004 12.4246C0.127133 12.4487 0.141016 12.4718 0.156542 12.4939C0.189562 12.5457 0.228263 12.5937 0.271927 12.6369L11.3488 23.7139C11.4316 23.8105 11.5334 23.889 11.648 23.9444C11.7625 23.9998 11.8872 24.0309 12.0143 24.0358C12.1415 24.0407 12.2682 24.0193 12.3867 23.9729C12.5051 23.9265 12.6127 23.8561 12.7027 23.7662C12.7926 23.6762 12.863 23.5686 12.9094 23.4502C12.9558 23.3317 12.9773 23.2049 12.9724 23.0778C12.9674 22.9507 12.9363 22.826 12.8809 22.7114C12.8255 22.5969 12.747 22.4951 12.6504 22.4123L3.15193 12.9231H23.0765C23.3214 12.9231 23.5561 12.8258 23.7293 12.6527C23.9024 12.4796 23.9996 12.2448 23.9996 12C23.9996 11.7552 23.9024 11.5204 23.7293 11.3473C23.5561 11.1742 23.3214 11.0769 23.0765 11.0769Z" fill="white"/>
</g>
<defs>
<clipPath id="clip0_1871_2724">
<rect width="24" height="24" fill="white"/>
</clipPath>
</defs>
</svg>
