<svg width="24" height="24" viewBox="0 0 24 24" fill="none" xmlns="http://www.w3.org/2000/svg">
<g clip-path="url(#clip0_1117_7401)">
<path fill-rule="evenodd" clip-rule="evenodd" d="M13.2513 9.98204L12.9427 9.93213C12.4107 9.75609 11.8491 9.73892 11.3099 9.88222L10.7435 9.9412C10.7122 9.64472 10.6998 9.34596 10.7064 9.04736C10.895 9.03368 11.0736 8.94368 11.211 8.79298C11.3485 8.64229 11.4361 8.44043 11.4588 8.22247C11.4814 8.00451 11.4376 7.78422 11.3349 7.59988C11.2323 7.41553 11.0773 7.27878 10.8969 7.21338C10.7164 7.14798 10.522 7.15807 10.3473 7.24188C10.1726 7.3257 10.0287 7.47795 9.94061 7.67218C9.85251 7.86642 9.82577 8.09036 9.86504 8.30511C9.90432 8.51987 10.0071 8.71185 10.1556 8.84772C10.0642 9.21639 10.0188 9.59839 10.0208 9.98204C9.62617 10.003 9.23396 10.0653 8.84894 10.1681L6.90949 8.62085C7.33136 8.05823 7.30011 7.18934 7.1341 6.08904C8.63996 5.47878 10.1341 3.32357 9.45246 1.1797C8.9515 2.534 8.05797 3.6417 6.92707 4.31043C6.87824 3.15342 7.24542 1.69695 7.94074 0C6.58173 0.781523 5.53298 2.13937 5.01105 3.79317C4.6048 5.10899 4.42511 8.1036 5.63996 8.90217C5.95203 9.73643 6.38323 10.5034 6.91535 11.1708C6.14688 11.7777 5.6036 12.6987 5.39386 13.7503C5.28943 13.6631 5.19202 13.5652 5.10285 13.4576C4.80553 13.094 4.58899 12.6517 4.47199 12.169C4.4673 12.1448 4.45468 12.1237 4.43681 12.1102C4.41894 12.0966 4.39723 12.0917 4.37628 12.0964L4.18097 12.1418C4.2723 11.6677 4.2816 11.1772 4.20831 10.6989C4.12942 10.239 3.97275 9.80176 3.74738 9.41261L3.71027 9.36724C3.65558 9.26742 3.62824 9.21978 3.57355 9.19709C3.52081 9.17894 3.48175 9.19709 3.40558 9.23339L3.37042 9.24927C3.04703 8.77955 2.85426 8.20671 2.81769 7.60677C2.77859 6.91987 2.81469 6.22999 2.92511 5.55364C2.9282 5.53617 2.9271 5.51805 2.92193 5.50125C2.91676 5.48445 2.90773 5.46961 2.89581 5.45836C2.87897 5.44245 2.85738 5.43496 2.83578 5.43751C2.81418 5.44006 2.79433 5.45245 2.78058 5.47197C2.37118 6.03753 2.1228 6.7366 2.06964 7.47292C2.03333 8.22401 2.17234 8.97256 2.47199 9.63947L2.43683 9.67577C2.32746 9.7824 2.28058 9.83004 2.27863 9.90264C2.27667 9.97523 2.30792 10.0138 2.36456 10.0887C2.40893 10.1474 2.45065 10.2087 2.48957 10.2724C2.70464 10.6272 2.87315 11.0171 2.98957 11.4294C3.13105 11.9349 3.22022 12.4581 3.25519 12.988L3.0716 13.2625C3.0592 13.2797 3.0524 13.3014 3.0524 13.3238C3.0524 13.3462 3.0592 13.3678 3.0716 13.385C3.46876 13.9177 3.95094 14.356 4.49152 14.6759C4.7696 14.8363 5.06161 14.9618 5.36261 15.0502C5.40252 15.3305 5.46799 15.605 5.55792 15.8692C5.39418 15.8625 5.23223 15.8273 5.07746 15.7648C4.70575 15.6011 4.36484 15.3553 4.07355 15.0411C4.06608 15.0321 4.05713 15.025 4.04723 15.0201C4.03733 15.0152 4.02669 15.0127 4.01593 15.0127C4.00518 15.0127 3.99453 15.0152 3.98463 15.0201C3.97473 15.025 3.96578 15.0321 3.95832 15.0411C3.94839 15.0539 3.94164 15.0696 3.93878 15.0865L3.86847 15.5402C3.53211 15.4131 3.22356 15.2025 2.96417 14.9232C2.70001 14.6365 2.5065 14.2731 2.40363 13.8705C2.39785 13.8494 2.38592 13.8312 2.36988 13.8192C2.35383 13.8072 2.33469 13.8021 2.31574 13.8047L1.99152 13.8387C1.58104 13.4795 1.21556 13.0558 0.905581 12.5796C0.579443 12.0652 0.353519 11.4746 0.243471 10.8487C0.241378 10.8362 0.237177 10.8244 0.231114 10.8139C0.22505 10.8034 0.217246 10.7944 0.208155 10.7874C0.199065 10.7805 0.188871 10.7757 0.178167 10.7733C0.167464 10.771 0.156466 10.7712 0.145815 10.7738C0.13026 10.7779 0.116065 10.7871 0.104965 10.8004C0.0938648 10.8137 0.0863415 10.8305 0.083315 10.8487C-0.0724644 11.6442 -0.0187046 12.4757 0.237612 13.2353C0.489478 13.9074 0.884745 14.4938 1.38605 14.939L1.22394 15.1273C1.20879 15.1452 1.2003 15.1692 1.2003 15.1943C1.2003 15.2193 1.20879 15.2433 1.22394 15.2612C1.55649 15.6594 1.95516 15.9751 2.39582 16.1891C2.85269 16.4043 3.33712 16.53 3.82941 16.5611L3.85871 16.9853C3.86001 17.0079 3.8682 17.0292 3.8818 17.0455C3.8954 17.0617 3.91352 17.0717 3.93292 17.0738C4.35652 17.1177 4.783 17.1062 5.20441 17.0398C5.46964 16.9962 5.73106 16.9256 5.98566 16.8288C6.09905 17.0232 6.22232 17.2096 6.3548 17.3869C6.09471 17.5789 5.8089 17.7192 5.5091 17.8021C5.10897 17.9096 4.69903 17.9599 4.28839 17.9518C4.26664 17.9518 4.24577 17.9618 4.23039 17.9797C4.215 17.9976 4.20636 18.0218 4.20636 18.0471V18.3533C3.84201 18.3931 3.50124 18.5802 3.24347 18.8819C2.9592 19.278 2.80735 19.7798 2.81574 20.2953C2.51496 20.6832 2.36652 21.3298 2.38605 22.0195C2.402 22.7148 2.59353 23.3893 2.93683 23.9592C2.94303 23.9693 2.95091 23.9778 2.96 23.9843C2.96909 23.9909 2.97921 23.9952 2.98977 23.9971C3.00032 23.999 3.0111 23.9984 3.02146 23.9954C3.03183 23.9924 3.04157 23.987 3.05011 23.9796C3.06114 23.9702 3.07009 23.9579 3.0762 23.9437C3.08232 23.9295 3.08542 23.9138 3.08527 23.8979C3.05593 23.3313 3.05593 22.7631 3.08527 22.1964C3.1035 21.7602 3.18265 21.3304 3.31964 20.9237L3.55988 20.8874C3.57775 20.8852 3.5945 20.8762 3.60755 20.8619C3.62061 20.8475 3.62925 20.8286 3.63214 20.808C3.6753 20.4776 3.77634 20.1611 3.92902 19.8779C4.07373 19.6167 4.25608 19.3865 4.46808 19.1973C4.49574 19.2361 4.52955 19.2685 4.56769 19.2926C4.70787 19.3737 4.86505 19.4067 5.02081 19.3878C5.22161 19.3702 5.41905 19.3183 5.60675 19.2336C6.13786 19.0059 6.58725 18.5766 6.88214 18.0153C7.34921 18.513 7.86436 18.9462 8.4173 19.3062C10.9564 20.9623 13.3568 20.9986 16.8411 18.1719C16.9305 18.1017 17.0166 18.026 17.0989 17.945C17.0969 17.9663 17.1011 17.9879 17.1107 18.0062C17.4036 18.5716 17.8534 19.0044 18.386 19.2336C18.5739 19.3178 18.7713 19.3698 18.972 19.3878C19.1278 19.4067 19.2849 19.3737 19.4251 19.2926C19.4632 19.2685 19.4971 19.2361 19.5247 19.1973C19.7366 19.386 19.9184 19.6163 20.0618 19.8779C20.216 20.1605 20.3177 20.4772 20.3607 20.808C20.3636 20.8286 20.3722 20.8475 20.3852 20.8619C20.3983 20.8762 20.4151 20.8852 20.4329 20.8874L20.6732 20.9237C20.8097 21.3312 20.8882 21.7619 20.9056 22.1987C20.9349 22.7653 20.9349 23.3335 20.9056 23.9002C20.9054 23.9161 20.9085 23.9318 20.9146 23.946C20.9208 23.9602 20.9297 23.9725 20.9407 23.9819C20.9493 23.9893 20.959 23.9947 20.9694 23.9977C20.9797 24.0007 20.9905 24.0013 21.0011 23.9994C21.0116 23.9975 21.0218 23.9931 21.0308 23.9866C21.0399 23.9801 21.0478 23.9715 21.054 23.9614C21.3973 23.3916 21.5889 22.717 21.6048 22.0217C21.6243 21.3411 21.4759 20.6855 21.1751 20.2976C21.1835 19.782 21.0316 19.2802 20.7474 18.8842C20.4896 18.5825 20.1488 18.3954 19.7845 18.3556V18.0493C19.7845 18.0241 19.7758 17.9998 19.7605 17.982C19.7451 17.9641 19.7242 17.9541 19.7025 17.9541C19.2918 17.9622 18.8819 17.9119 18.4818 17.8043C18.1674 17.7144 17.8693 17.5608 17.6009 17.3506C17.7232 17.1745 17.8348 16.9888 17.9349 16.7948C18.2128 16.9006 18.4985 16.9765 18.7884 17.0216C19.2098 17.0881 19.6363 17.0995 20.0599 17.0557C20.0793 17.0536 20.0974 17.0435 20.111 17.0273C20.1246 17.0111 20.1328 16.9898 20.1341 16.9672L20.1634 16.543C20.6536 16.5118 21.136 16.3869 21.5911 16.1732C22.0318 15.9592 22.4305 15.6435 22.763 15.2453C22.7782 15.2275 22.7866 15.2034 22.7866 15.1784C22.7866 15.1533 22.7782 15.1293 22.763 15.1114L22.6009 14.9232C23.1022 14.4779 23.4975 13.8915 23.7493 13.2194C24.0056 12.4598 24.0594 11.6283 23.9036 10.8328C23.9002 10.8144 23.8923 10.7976 23.8809 10.7843C23.8695 10.771 23.855 10.7619 23.8392 10.7579C23.8179 10.7532 23.796 10.7585 23.7781 10.7725C23.7602 10.7865 23.7477 10.8082 23.7435 10.8328C23.6334 11.4587 23.4075 12.0493 23.0814 12.5638C22.776 13.0446 22.4144 13.4737 22.0071 13.8387L21.6927 13.8229C21.6737 13.8202 21.6546 13.8254 21.6385 13.8374C21.6225 13.8494 21.6106 13.8675 21.6048 13.8886C21.5019 14.2912 21.3084 14.6546 21.0443 14.9413C20.7849 15.2207 20.4763 15.4312 20.14 15.5584L20.0696 15.1046C20.0668 15.0877 20.06 15.0721 20.0501 15.0593C20.0426 15.0503 20.0337 15.0431 20.0238 15.0382C20.0139 15.0334 20.0032 15.0309 19.9925 15.0309C19.9817 15.0309 19.9711 15.0334 19.9612 15.0382C19.9513 15.0431 19.9423 15.0503 19.9349 15.0593C19.6436 15.3735 19.3027 15.6192 18.931 15.783C18.7354 15.8622 18.5285 15.8969 18.3216 15.8851C18.4029 15.627 18.4726 15.3642 18.5306 15.0978C18.8687 15.0085 19.1965 14.8729 19.5071 14.694C20.0481 14.3787 20.5316 13.945 20.931 13.4168C20.9434 13.3996 20.9502 13.3779 20.9502 13.3555C20.9502 13.3331 20.9434 13.3114 20.931 13.2943L20.7474 13.0198C20.7823 12.4898 20.8715 11.9666 21.013 11.4612C21.1294 11.0489 21.2979 10.659 21.513 10.3042C21.5519 10.2405 21.5936 10.1791 21.638 10.1204C21.6946 10.0456 21.7259 10.0025 21.7239 9.9344C21.722 9.86634 21.6751 9.80509 21.5657 9.70753L21.5306 9.67124C21.8302 9.00432 21.9692 8.25577 21.9329 7.50468C21.8798 6.76836 21.6314 6.06929 21.222 5.50373C21.2082 5.48421 21.1884 5.47182 21.1668 5.46927C21.1452 5.46672 21.1236 5.47422 21.1068 5.49012C21.0948 5.50137 21.0858 5.51621 21.0806 5.53301C21.0755 5.54981 21.0744 5.56793 21.0775 5.58541C21.1879 6.26175 21.224 6.95163 21.1849 7.63853C21.1483 8.23847 20.9555 8.81131 20.6321 9.28103L20.597 9.26515C20.5208 9.22885 20.4818 9.2107 20.429 9.22885C20.3743 9.25154 20.347 9.29918 20.2923 9.399L20.261 9.45571C20.0357 9.84486 19.879 10.2821 19.8001 10.742C19.7268 11.2203 19.7361 11.7108 19.8275 12.1849L19.6321 12.1395C19.6112 12.1348 19.5895 12.1397 19.5716 12.1533C19.5537 12.1668 19.5411 12.1879 19.5364 12.2121C19.4194 12.6948 19.2029 13.1371 18.9056 13.5007C18.8173 13.607 18.7212 13.7041 18.6185 13.7911C18.5369 13.1848 18.3494 12.6042 18.0677 12.0851C17.8403 11.686 17.5461 11.3441 17.2025 11.0801C17.684 10.4374 18.0791 9.71385 18.3743 8.93393C19.5814 8.14444 19.4095 5.14075 19.0032 3.82494C18.4835 2.15601 17.4281 0.785361 16.0579 0C16.7532 1.68787 17.1204 3.14434 17.0716 4.31043C15.9407 3.6417 15.0472 2.534 14.5462 1.1797C13.8646 3.32357 15.3587 5.49012 16.8646 6.09812C16.6907 7.19841 16.6693 8.0673 17.0892 8.62993L15.0618 10.218C14.6966 10.1454 14.3333 10.0932 13.9681 10.0614C13.9787 9.65129 13.9339 9.24175 13.8353 8.84772C13.984 8.71258 14.0873 8.52109 14.127 8.30663C14.1667 8.09216 14.1403 7.86832 14.0525 7.6741C13.9647 7.47988 13.821 7.32759 13.6465 7.24379C13.472 7.15998 13.2777 7.14996 13.0974 7.21548C12.9172 7.281 12.7625 7.4179 12.6602 7.60232C12.5579 7.78674 12.5146 8.007 12.5378 8.2247C12.561 8.44241 12.6492 8.64377 12.7871 8.79368C12.925 8.9436 13.1037 9.03257 13.2923 9.04509C13.2996 9.35817 13.2859 9.67144 13.2513 9.98204ZM10.6595 7.81548C10.7098 7.81503 10.7591 7.83195 10.8011 7.86408C10.8431 7.89621 10.8759 7.94212 10.8955 7.99596C10.915 8.04981 10.9203 8.10918 10.9107 8.16654C10.9011 8.2239 10.8771 8.27666 10.8417 8.31814C10.8062 8.35961 10.761 8.38792 10.7117 8.39949C10.6624 8.41105 10.6112 8.40535 10.5647 8.38309C10.5182 8.36084 10.4785 8.32304 10.4505 8.27449C10.4225 8.22594 10.4075 8.16883 10.4075 8.11041C10.4075 8.03258 10.434 7.95791 10.4812 7.90266C10.5284 7.84742 10.5925 7.81608 10.6595 7.81548ZM13.3392 7.81548C13.2889 7.81503 13.2396 7.83195 13.1976 7.86408C13.1556 7.89621 13.1227 7.94212 13.1032 7.99596C13.0837 8.04981 13.0784 8.10918 13.088 8.16654C13.0975 8.2239 13.1216 8.27666 13.157 8.31814C13.1924 8.35961 13.2377 8.38792 13.287 8.39949C13.3363 8.41105 13.3874 8.40535 13.4339 8.38309C13.4804 8.36084 13.5202 8.32304 13.5482 8.27449C13.5762 8.22594 13.5911 8.16883 13.5911 8.11041C13.5911 8.03258 13.5646 7.95791 13.5175 7.90266C13.4703 7.84742 13.4062 7.81608 13.3392 7.81548Z" fill="url(#paint0_linear_1117_7401)"/>
</g>
<defs>
<linearGradient id="paint0_linear_1117_7401" x1="-0.00390625" y1="0" x2="28.8159" y2="2.27548" gradientUnits="userSpaceOnUse">
<stop stop-color="#9156F2"/>
<stop offset="0.734" stop-color="#C61ED4"/>
</linearGradient>
<clipPath id="clip0_1117_7401">
<rect width="24" height="24" fill="white"/>
</clipPath>
</defs>
</svg>
