<svg width="24" height="24" viewBox="0 0 24 24" fill="none" xmlns="http://www.w3.org/2000/svg">
<path d="M5.19419 0.0119877C3.56981 0.11132 2.38998 0.466387 1.64157 1.08352C1.45587 1.23781 1.20265 1.52735 1.09011 1.71968C0.971939 1.91835 0.878152 2.1466 0.829384 2.36429C0.773112 2.60312 0.769361 3.11035 0.821881 3.37031C0.853768 3.52671 0.855644 3.54784 0.829384 3.56475C0.72997 3.62815 0.324814 3.97054 0.242283 4.06142C0.124112 4.19245 0.107231 4.23895 0.146621 4.32349C0.172881 4.38478 0.171005 4.38689 0.129739 4.39957C0.105355 4.40591 0.0659648 4.4355 0.0415804 4.46509C0.00406598 4.50948 -0.00156118 4.53695 0.000314539 4.66799C0.00406598 5.078 0.244158 5.2978 0.776864 5.37812C0.853768 5.3908 1.12387 5.41827 1.37709 5.44363C2.48565 5.54931 2.92832 5.62751 3.40287 5.80293C3.71049 5.91705 4.17192 6.18758 4.17192 6.2531C4.17192 6.26789 4.13816 6.36723 4.09689 6.47501C3.8718 7.06256 3.76676 7.72831 3.79865 8.38137C3.84554 9.34089 4.24883 10.2011 4.9541 10.8499C5.18856 11.0655 5.75128 11.4501 5.78129 11.4142C5.78879 11.4079 5.80005 11.1331 5.80567 10.8055C5.8188 10.1609 5.84131 9.94112 5.93322 9.54167C6.05327 9.02598 6.23709 8.63922 6.5222 8.30317L6.67038 8.12987L6.54658 7.90161C6.42841 7.6797 6.29899 7.37324 6.31587 7.35422C6.3215 7.34788 6.40778 7.40495 6.50907 7.47892C7.35315 8.09183 9.17072 9.15702 10.9433 10.0764C11.3728 10.2983 11.5323 10.3934 12.5189 11.0021C13.9032 11.8581 14.3796 12.1391 14.8785 12.3885C15.2987 12.5999 15.445 12.7013 15.7264 12.9782C16.0059 13.2508 16.2835 13.6439 16.593 14.1998C16.6774 14.3541 16.8574 14.6648 16.9944 14.8909C17.6621 16.0068 18.2623 17.2453 18.7088 18.431C18.7913 18.6487 18.977 19.2256 18.9676 19.2341C18.9639 19.2362 18.8701 19.2595 18.7575 19.2848C17.5458 19.5575 16.1334 21.0411 15.672 22.5269C15.5651 22.8735 15.5144 23.2645 15.5557 23.4547L15.5669 23.5118L15.8014 23.3512C16.2685 23.032 16.5892 22.8693 16.8968 22.7911C17.1013 22.7404 17.3264 22.7467 17.921 22.8186C18.4912 22.8904 18.9845 22.8862 19.6279 22.8059C20.7421 22.6664 21.7474 22.7509 22.4621 23.0405C22.7697 23.1652 22.9104 23.2518 23.7019 23.8077C23.8539 23.9133 23.9833 24 23.9908 24C24.0189 24 23.9777 23.3596 23.9327 23.0574C23.8708 22.6601 23.8239 22.4529 23.7451 22.231C23.4881 21.5124 22.7059 20.5571 21.92 19.9992C21.8206 19.9294 21.5861 19.7815 21.4004 19.6716C20.909 19.382 20.7814 19.2912 20.652 19.1474C20.5245 19.0058 20.4419 18.8389 20.4157 18.6677C20.4063 18.6085 20.3894 18.4014 20.3782 18.2091C20.245 15.9096 19.8999 13.7348 19.3521 11.7629C19.3052 11.5939 19.2602 11.4248 19.249 11.3867C19.204 11.2134 18.962 10.4674 18.8251 10.0827C18.1704 8.23766 17.377 6.74131 16.3135 5.34641C15.9852 4.91738 15.8295 4.6701 15.6982 4.37633C15.5275 3.9959 15.4825 3.70001 15.5557 3.43794C15.6138 3.22871 15.7489 3.05751 15.9477 2.94973C16.0115 2.9138 16.064 2.87153 16.064 2.85885C16.064 2.82503 15.9327 2.57141 15.8314 2.4129C15.717 2.23114 15.4919 1.99866 15.3662 1.93103C15.1693 1.82113 15.0417 1.79999 14.6384 1.79999C14.237 1.80211 13.9444 1.83381 13.2842 1.94582L12.8584 2.01979L12.5339 1.82535C10.872 0.836245 8.9944 0.231789 7.01176 0.0436897C6.60286 0.00353432 5.6031 -0.0133743 5.19419 0.0119877Z" fill="url(#paint0_linear_1529_221)"/>
<defs>
<linearGradient id="paint0_linear_1529_221" x1="0" y1="24" x2="28.8261" y2="21.7235" gradientUnits="userSpaceOnUse">
<stop stop-color="#9156F2"/>
<stop offset="0.734" stop-color="#C61ED4"/>
</linearGradient>
</defs>
</svg>
