<svg width="24" height="24" viewBox="0 0 24 24" fill="none" xmlns="http://www.w3.org/2000/svg">
<path d="M21.0002 19.7506C19.6768 19.7506 18.6002 19.2137 18.6002 18.5536V12.5686C19.2315 10.5219 19.0733 8.68275 18.4984 7.08291C20.0316 6.32503 21.6002 5.40014 21.6002 4.78805C21.6002 3.591 12.0001 0 12.0001 0C12.0001 0 2.4 3.591 2.4 4.78805C2.4 5.40014 3.96861 6.32498 5.50179 7.08291C4.92679 8.68275 4.7687 10.522 5.4 12.5686V18.5536C5.4 19.2136 4.32331 19.7506 3 19.7506H0V21.5461H3C5.37218 21.5461 7.42679 20.8559 8.4 19.857V21.0075C8.4 21.6675 7.32331 22.2045 6 22.2045V24C9.30846 24 12 22.6575 12 21.0075C12 22.6576 14.6916 24 18 24V22.2045C16.6766 22.2045 15.6 21.6675 15.6 21.0075V19.8571C16.5732 20.856 18.6278 21.5461 21 21.5461H24V19.7506H21.0002ZM15.3608 10.7731H12.0001H8.63947C8.52556 9.73472 8.62641 8.70769 8.94173 7.70489C9.31814 6.50836 10.0001 5.33991 10.969 4.23202C11.3068 3.84567 11.6569 3.49317 12.0008 3.17639C12.3042 3.45656 12.613 3.765 12.915 4.10109C13.9199 5.21911 14.6309 6.40041 15.0286 7.61231C15.3675 8.64469 15.4781 9.70294 15.3608 10.7731Z" fill="url(#paint0_linear_1117_7419)"/>
<defs>
<linearGradient id="paint0_linear_1117_7419" x1="0" y1="0" x2="28.8261" y2="2.27651" gradientUnits="userSpaceOnUse">
<stop stop-color="#9156F2"/>
<stop offset="0.734" stop-color="#C61ED4"/>
</linearGradient>
</defs>
</svg>
