<svg width="24" height="24" viewBox="0 0 24 24" fill="none" xmlns="http://www.w3.org/2000/svg">
<path fill-rule="evenodd" clip-rule="evenodd" d="M0.530899 6.50891C0.00746157 7.0639 -0.172226 7.5009 0.189102 7.76529C0.497696 7.99253 0.896133 7.91824 1.2477 7.91824C3.48793 7.92261 5.68324 8.07119 7.69301 8.61306C7.64418 9.66405 8.40981 10.6648 9.64418 12.0304C10.2008 12.6444 10.5973 12.8804 10.8903 12.5242C11.3121 12.0151 11.359 11.1739 11.2692 10.5249L11.2301 10.2453C13.0075 11.5716 14.7516 13.5992 16.4645 16.2802L15.2477 18.415C14.9879 19.1775 15.4723 19.4288 15.9489 19.1054C17.2711 18.3385 18.6481 17.7835 20.1129 17.6327C20.3942 17.6043 20.775 17.6458 21.0075 17.6021C21.5758 17.4951 21.6461 16.8112 21.0329 16.4332L19.0114 15.4587C18.6852 10.2256 16.7321 5.23943 12.9586 2.63273C13.9157 1.77403 14.2516 0.948099 13.9293 0.13091C12.4254 -0.319199 9.63051 0.449919 9.21059 1.5446C6.5016 1.51183 3.57582 3.45647 0.530899 6.50891ZM8.23207 22.9641C8.0934 22.8964 8.01918 22.6823 8.06606 22.4856C8.11488 22.289 8.26527 22.1841 8.40395 22.2518C9.57387 22.8243 10.3922 23.152 11.0954 23.2285C11.7789 23.3028 12.3629 23.1367 13.0758 22.7238C14.3024 22.0115 15.1247 22.289 16.025 22.5905C16.8981 22.8833 17.8512 23.2045 19.3727 22.5271C19.3805 22.5249 19.3864 22.5206 19.3942 22.5184C20.6207 22.018 21.3981 22.2977 22.359 22.6451C22.777 22.7959 23.2321 22.9619 23.7692 23.0712C23.9157 23.0996 24.0172 23.2919 23.9957 23.4994C23.9743 23.707 23.8395 23.849 23.693 23.8206C23.1207 23.7027 22.6559 23.5344 22.2262 23.3793C21.3414 23.0603 20.6246 22.8002 19.5387 23.2438C19.5348 23.246 19.5329 23.246 19.5289 23.2482C17.8668 23.9889 16.8395 23.6437 15.9 23.3268C15.0856 23.0537 14.3414 22.8024 13.275 23.4208C12.4821 23.8818 11.8278 24.0654 11.0543 23.9823C10.3043 23.8993 9.44691 23.5584 8.23207 22.9641ZM8.23207 20.5016C8.0934 20.4339 8.01918 20.2198 8.06606 20.0231C8.11488 19.8265 8.26527 19.7216 8.40395 19.7893C9.57387 20.3618 10.3922 20.6895 11.0954 20.766C11.7789 20.8403 12.3629 20.6742 13.0758 20.2613C14.3024 19.549 15.1247 19.8265 16.025 20.128C16.8981 20.4208 17.8512 20.742 19.3727 20.0646C19.3805 20.0624 19.3864 20.0581 19.3942 20.0559C20.6207 19.5555 21.3981 19.8352 22.359 20.1826C22.777 20.3334 23.2321 20.4994 23.7692 20.6087C23.9157 20.6371 24.0172 20.8294 23.9957 21.037C23.9743 21.2445 23.8395 21.3866 23.693 21.3581C23.1207 21.2402 22.6559 21.0719 22.2262 20.9168C21.3414 20.5978 20.6246 20.3378 19.5387 20.7813C19.5348 20.7835 19.5329 20.7835 19.5289 20.7857C17.8668 21.5264 16.8395 21.1812 15.9 20.8643C15.0856 20.5912 14.3414 20.3399 13.275 20.9583C12.4821 21.4193 11.8278 21.6029 11.0543 21.5198C10.3043 21.4368 9.44691 21.0959 8.23207 20.5016ZM4.67152 4.91387C4.89418 4.95757 5.0641 5.17388 5.0641 5.43608C5.0641 5.72887 4.85121 5.96703 4.58754 5.96703C4.34535 5.96703 4.14418 5.76602 4.11488 5.506C4.08363 5.12144 4.29066 4.94227 4.67152 4.91387Z" fill="url(#paint0_linear_1117_7405)"/>
<defs>
<linearGradient id="paint0_linear_1117_7405" x1="0" y1="0" x2="28.8244" y2="2.27609" gradientUnits="userSpaceOnUse">
<stop stop-color="#9156F2"/>
<stop offset="0.734" stop-color="#C61ED4"/>
</linearGradient>
</defs>
</svg>
