<svg width="24" height="24" viewBox="0 0 24 24" fill="none" xmlns="http://www.w3.org/2000/svg">
<path fill-rule="evenodd" clip-rule="evenodd" d="M5.87458 15.4679C5.57765 15.9294 5.22603 16.3396 4.83143 16.7145L4.24344 16.2018L4.20632 17.2497C4.1653 17.2818 4.12428 17.3138 4.0813 17.3458L3.43079 16.7818L3.36438 17.8394C3.33703 17.8554 3.30968 17.8746 3.28429 17.8906L2.69825 17.2369L2.56541 18.304L2.55369 18.3105C2.5576 18.3169 2.55955 18.3201 2.56346 18.3265L2.5615 18.3361L2.56736 18.3329C3.33508 19.6244 4.98575 19.6019 7.04861 18.9642L10.7661 18.2143C11.145 19.8519 11.8698 20.9575 12.8934 21.6081C13.7471 20.5313 14.1202 18.7687 14.1065 16.878C15.8216 16.3524 17.5387 16.7658 19.2558 18.2079L19.8712 20.0089C19.1953 20.1147 18.5838 20.6114 18.0193 21.31C17.527 21.9189 16.4116 23.3674 17.6638 23.8257C18.66 24.1398 19.6289 23.8225 20.5666 22.7169C21.3734 23.7936 22.3189 24.1782 23.3894 23.925C24.1004 23.6174 24.1454 23.0309 23.7468 22.2618C22.9674 21.1626 22.1704 20.2749 21.3206 19.9288C20.842 12.667 17.6852 7.55557 12.7703 5.43087L12.0397 0.562973C11.9362 -0.0715519 11.5533 -0.270242 11.0845 0.49888L7.90423 5.5206C5.26315 6.77043 3.1241 8.83103 1.31128 11.5005C1.01436 11.9364 -0.0600497 13.3432 0.000507811 13.9713C0.0630187 14.6059 0.856126 15.2115 1.61407 15.5993L2.16104 16.7241L2.41695 15.9358C2.5029 15.9614 2.58299 15.9839 2.65332 15.9999L2.97759 16.7466L3.28038 16.0319C4.09302 16.0095 4.96427 15.798 5.87458 15.4679ZM4.62241 11.5806C4.72399 11.5806 4.80408 11.712 4.80408 11.8787C4.80408 12.0421 4.72204 12.1767 4.62241 12.1767C4.52278 12.1767 4.44074 12.0453 4.44074 11.8787C4.44074 11.7152 4.52278 11.5806 4.62241 11.5806ZM4.79627 10.9718C5.04436 11.0423 5.23384 11.398 5.23384 11.821C5.23384 12.2985 4.99748 12.683 4.70446 12.683C4.43488 12.683 4.21218 12.3562 4.17897 11.9299L4.79627 10.9718Z" fill="url(#paint0_linear_1529_225)"/>
<defs>
<linearGradient id="paint0_linear_1529_225" x1="-0.00195312" y1="0" x2="28.8241" y2="2.27651" gradientUnits="userSpaceOnUse">
<stop stop-color="#9156F2"/>
<stop offset="0.734" stop-color="#C61ED4"/>
</linearGradient>
</defs>
</svg>
