<svg width="24" height="24" viewBox="0 0 24 24" fill="none" xmlns="http://www.w3.org/2000/svg">
<g clip-path="url(#clip0_1117_7394)">
<path fill-rule="evenodd" clip-rule="evenodd" d="M9.93154 10.5774C7.80068 10.2946 6.26357 9.62883 5.8163 8.2296C7.31624 8.10117 8.79366 7.76712 10.2108 7.236C12.2538 6.41654 14.4784 5.73843 16.7597 6.10719C16.7261 6.99434 16.5743 7.87219 16.3085 8.71513C16.0902 9.48984 15.7743 10.2305 15.369 10.9174C13.6112 10.5937 11.6757 10.8089 9.93154 10.5774ZM16.9472 12.7961L16.9647 12.456C16.7767 12.3419 16.5809 12.2426 16.3788 12.1589C16.3007 12.1282 16.2226 12.0975 16.1464 12.0708C14.8983 12.5707 14.3456 14.1318 14.3104 15.5535C14.7655 14.6767 15.3827 12.8268 16.4061 12.7981L16.9472 12.7961ZM13.2675 11.28L14.1308 11.4173L13.1405 12.9374C12.6581 13.679 11.8905 13.5213 11.1757 13.3164L6.99404 12.1077C6.2499 12.9989 5.85927 14.0683 5.46865 15.2708C5.44998 14.0895 5.77199 12.9299 6.39247 11.9438C6.46107 11.8078 6.5681 11.6974 6.69888 11.6277C6.82965 11.558 6.97778 11.5325 7.12294 11.5546L12.1659 12.7838L13.2675 11.28ZM19.1972 17.5305C18.1073 18.0017 17.5624 19.2944 17.4394 20.5707C17.5331 20.501 17.6347 20.4293 17.7128 20.3658C18.0507 19.6304 18.4726 18.7269 19.0429 18.3868C19.1019 18.177 19.145 17.9626 19.1718 17.7456C19.1718 17.678 19.1894 17.6083 19.1952 17.5407L19.1972 17.5305ZM19.0429 16.3013L19.0722 15.7748C19.0468 15.656 19.0175 15.5351 18.9843 15.4183C17.2128 15.5126 16.4452 17.383 16.4081 19.0608C16.8612 18.184 17.4804 16.3341 18.4999 16.3054L19.0429 16.3013ZM18.244 14.3407L18.2733 13.7896L18.2206 13.7077C18.1779 13.6447 18.1437 13.5757 18.119 13.5028C18.1016 13.4924 18.0852 13.4801 18.0702 13.466C16.3808 13.634 15.6483 15.4593 15.6093 17.1003C16.0624 16.2235 16.6796 14.3735 17.6991 14.3407H18.244ZM5.29677 9.2191C5.00576 9.1474 4.72451 9.0716 4.45107 8.9876C3.88766 8.82139 3.33668 8.61186 2.80263 8.36071C1.85732 7.90591 1.00185 7.30771 0.49599 6.66852C0.223319 6.35835 0.0498711 5.96655 -0.00010379 5.54791C-0.0106737 5.33496 0.0241647 5.12222 0.101875 4.92517C0.179585 4.72813 0.298211 4.55174 0.449115 4.40886C0.488177 4.36788 0.52724 4.32896 0.572162 4.29004C0.422521 3.97407 0.334223 3.63006 0.312396 3.278C0.290828 2.85821 0.357506 2.43857 0.507709 2.04881C0.807898 1.36263 1.34653 0.822574 2.01357 0.538947C2.74363 0.213486 3.52532 0.0342155 4.31826 0.0103938C5.58639 -0.0585455 6.85428 0.150779 8.04091 0.62499C9.02608 1.07711 9.98889 1.58103 10.9257 2.13485C10.9589 2.15124 10.9921 2.16968 11.0214 2.18811C12.453 3.00758 13.6386 3.67954 14.537 3.59554C14.5888 3.59092 14.6402 3.60808 14.68 3.64323C14.7197 3.67839 14.7445 3.72866 14.7489 3.78299C14.7533 3.83733 14.737 3.89127 14.7035 3.93296C14.6699 3.97464 14.622 4.00065 14.5702 4.00527H14.4589L14.6269 4.01552C15.0585 4.0401 15.4843 4.05239 15.9003 4.05034C16.3163 4.04829 16.7245 4.0319 17.1347 3.99913C17.1603 3.99697 17.1861 4.00014 17.2106 4.00845C17.2351 4.01676 17.2578 4.03004 17.2773 4.04754C17.2969 4.06504 17.313 4.08642 17.3248 4.11045C17.3365 4.13448 17.3435 4.1607 17.3456 4.1876C17.3477 4.21451 17.3446 4.24157 17.3367 4.26725C17.3288 4.29293 17.3161 4.31672 17.2994 4.33726C17.2828 4.35781 17.2624 4.37471 17.2395 4.38699C17.2166 4.39927 17.1916 4.4067 17.1659 4.40886C16.7558 4.44164 16.3339 4.45871 15.9003 4.46007C15.4726 4.46007 15.039 4.44983 14.6054 4.42525C13.3104 4.35149 12.0233 4.16916 10.7362 3.98479C9.70498 3.83933 8.67177 3.69183 7.62294 3.60169C6.57412 3.51155 5.58779 3.48286 4.71474 3.48286C3.95162 3.47413 3.19086 3.57336 2.45302 3.77787C1.97204 3.91439 1.51179 4.12129 1.08583 4.39247C1.30644 4.756 1.56883 5.08971 1.86708 5.38607C2.41354 5.9233 3.01257 6.39849 3.65419 6.80374C4.10341 7.09874 4.59169 7.3876 5.11122 7.67032C5.03162 7.7844 4.97815 7.91619 4.95497 8.05546C4.41201 7.78504 3.90615 7.47774 3.43935 7.17045C2.77437 6.74838 2.15317 6.25471 1.58583 5.69746C1.27526 5.38731 1.00118 5.03929 0.769428 4.66084L0.730365 4.69977C0.620151 4.80154 0.533236 4.92807 0.476088 5.06995C0.41894 5.21183 0.39303 5.3654 0.400287 5.51923C0.444009 5.85256 0.584483 6.1637 0.802631 6.41039C1.26943 7.00246 2.07412 7.56174 2.96865 7.98991C3.48415 8.23547 4.01618 8.44089 4.56044 8.6045C4.7219 8.65367 4.88792 8.70079 5.05849 8.74586C5.1257 8.91005 5.20538 9.06831 5.29677 9.2191ZM0.898334 4.03805C1.34953 3.75228 1.83578 3.53241 2.34365 3.38453C3.11561 3.16871 3.91197 3.06395 4.71083 3.07313C5.60927 3.06084 6.60146 3.1223 7.66201 3.21449C8.72255 3.30668 9.7499 3.45214 10.787 3.60169C11.8241 3.75124 12.8964 3.90079 13.9511 3.99093C13.0604 3.83728 12.0253 3.24727 10.8261 2.55687L10.7421 2.5077C9.81562 1.96264 8.86321 1.46758 7.88857 1.02448C6.75578 0.570122 5.54513 0.368478 4.33388 0.432417C3.59165 0.44967 2.85902 0.612256 2.17372 0.911802C1.59854 1.15139 1.13294 1.61337 0.872943 2.20246C0.744679 2.53498 0.688634 2.89329 0.708881 3.25137C0.72624 3.52414 0.792503 3.79104 0.904193 4.03805H0.898334ZM11.037 7.72563C11.185 7.72523 11.3299 7.7709 11.4531 7.85687C11.5764 7.94284 11.6726 8.06524 11.7295 8.20858C11.7864 8.35191 11.8015 8.50974 11.7729 8.66208C11.7442 8.81442 11.6731 8.95442 11.5686 9.06436C11.4641 9.1743 11.3308 9.24923 11.1856 9.27967C11.0405 9.31011 10.8899 9.29469 10.7531 9.23537C10.6163 9.17604 10.4994 9.07547 10.4171 8.9464C10.3348 8.81732 10.2909 8.66554 10.2909 8.51027C10.2909 8.30252 10.3695 8.10326 10.5093 7.95617C10.6492 7.80908 10.839 7.72617 11.037 7.72563ZM17.287 6.21782C18.4346 6.49265 19.5157 7.01294 20.4628 7.74612C20.8677 8.05044 21.245 8.39334 21.5897 8.77045C21.2656 9.54945 20.846 10.2808 20.3417 10.9461C19.8582 11.6322 19.2795 12.2385 18.6249 12.7448C18.2894 12.322 17.8887 11.9612 17.4394 11.6775C16.9648 11.3888 16.453 11.1735 15.9198 11.0383C16.2969 10.3577 16.5964 9.63293 16.8124 8.87902C17.0814 8.01708 17.2404 7.12153 17.2851 6.21577L17.287 6.21782ZM21.9745 9.23959C23.0314 10.5887 23.7078 12.2207 23.9276 13.9515C23.4298 14.4467 22.8846 14.8867 22.3007 15.2647C21.6088 15.7425 20.8514 16.1066 20.0546 16.3443C19.9344 15.2132 19.5537 14.1297 18.9452 13.1873C19.6347 12.6493 20.2459 12.0088 20.7597 11.2862C21.2364 10.6532 21.6439 9.96597 21.9745 9.23754V9.23959ZM23.9901 14.646C24.1228 16.6033 23.5183 18.537 22.3065 20.0319C22.1835 20.0053 22.0604 19.9766 21.9394 19.9459C21.1727 19.7675 20.4332 19.4786 19.7421 19.0875C19.7851 18.9789 19.8241 18.8662 19.8593 18.7535C20.0364 18.1573 20.1156 17.5338 20.0936 16.9098C20.7968 16.7561 21.7147 16.3115 22.58 15.742C23.0762 15.4176 23.5477 15.0532 23.9901 14.6521V14.646ZM21.8925 20.4867C20.8769 21.5629 19.5097 22.4507 17.7909 23.15C16.9726 23.7891 16.0331 24.0637 15.2968 23.9838C13.4413 23.7789 13.4394 21.1955 15.2108 21.1423C15.7479 21.1259 16.4765 21.2877 17.4374 21.6688C18.2954 21.1804 19.0115 20.4577 19.5097 19.5771C20.2363 19.9843 21.0123 20.2861 21.8163 20.4744L21.8925 20.4949V20.4867Z" fill="url(#paint0_linear_1117_7394)"/>
</g>
<defs>
<linearGradient id="paint0_linear_1117_7394" x1="-0.00195312" y1="-0.00244141" x2="28.8361" y2="2.276" gradientUnits="userSpaceOnUse">
<stop stop-color="#9156F2"/>
<stop offset="0.734" stop-color="#C61ED4"/>
</linearGradient>
<clipPath id="clip0_1117_7394">
<rect width="24" height="24" fill="white"/>
</clipPath>
</defs>
</svg>
