<svg width="24" height="24" viewBox="0 0 24 24" fill="none" xmlns="http://www.w3.org/2000/svg">
<path d="M9.95165 0.013669C9.46591 0.0639982 8.97455 0.176735 8.44755 0.355906C8.18499 0.446498 8.02371 0.520984 7.79115 0.661905C7.12913 1.06454 6.62089 1.56984 6.30769 2.13553C5.73944 3.15822 5.88009 4.38825 6.71091 5.67265C7.07662 6.23633 7.59048 6.61883 8.26751 6.83021C8.772 6.98723 9.13584 7.03958 9.82037 7.05367C10.4693 7.06776 10.7637 7.04562 11.5795 6.92885C12.2022 6.84027 12.8511 6.95502 13.3443 7.23888C13.8563 7.53683 14.1789 7.94348 14.5615 8.78095C14.8559 9.42315 15.1034 10.1418 15.5367 11.5893C15.5948 11.7826 15.6623 11.9758 15.6867 12.0161C15.7505 12.1188 15.8161 12.1349 15.8799 12.0644L15.9305 12.0121L15.9286 11.0598C15.9268 10.1781 15.9136 9.77344 15.863 9.07286C15.6023 5.44315 14.7584 2.77572 13.4099 1.32423C12.761 0.625669 12.0315 0.214985 11.1482 0.0539322C10.8931 0.00561714 10.233 -0.0165281 9.95165 0.013669Z" fill="url(#paint0_linear_1117_7409)"/>
<path d="M18.6484 1.37488C18.4608 1.40508 18.1945 1.47554 18.052 1.53593C17.1349 1.91441 16.5629 2.93507 16.3341 4.60398C16.2459 5.24618 16.2328 5.51393 16.2272 6.87884C16.2253 7.59351 16.2178 8.29208 16.2122 8.43099C16.2028 8.65243 16.2047 8.68867 16.2309 8.69874C16.3641 8.75309 16.3978 8.68666 16.6173 7.96595C16.8817 7.09626 17.0711 6.67954 17.3824 6.28496C17.6844 5.90448 18.0707 5.65082 18.5565 5.51996C18.729 5.47165 18.9109 5.44749 19.3329 5.40924C20.2781 5.32872 21.0001 4.72678 21.2571 3.80677C21.3227 3.56922 21.3415 3.14444 21.2946 2.90689C21.1089 1.9446 20.3137 1.39904 19.0516 1.37287C18.8603 1.36884 18.6802 1.37085 18.6484 1.37488Z" fill="url(#paint1_linear_1117_7409)"/>
<path d="M21.0771 5.20175C19.8731 5.29637 18.8998 5.88421 18.0296 7.03976C17.8739 7.24711 17.5157 7.81683 17.3788 8.07653C16.8837 9.01265 16.4523 10.2266 16.1841 11.4284C16.0491 12.0364 16.0454 12.0928 16.1354 12.0928C16.2048 12.0928 16.2442 12.0384 16.3567 11.7948C16.6624 11.1325 17.27 10.3937 17.857 9.97292C18.2396 9.69712 18.671 9.5099 19.0986 9.43138C19.288 9.39716 19.378 9.39313 19.6612 9.40119C19.95 9.40924 20.0475 9.42132 20.3401 9.48373C21.4485 9.71926 22.2737 9.67699 22.9507 9.35086C23.2189 9.22202 23.5227 8.95829 23.6952 8.70061C23.9991 8.25168 24.0816 7.57928 23.9072 6.99345C23.7177 6.36334 23.2545 5.80569 22.6638 5.49969C22.208 5.26214 21.6416 5.15746 21.0771 5.20175Z" fill="url(#paint2_linear_1117_7409)"/>
<path d="M6.48672 11.1465C6.48672 11.2794 6.33856 11.4706 6.16414 11.5673C5.98785 11.6619 5.81344 11.7082 5.49837 11.7404C5.04826 11.7867 4.7707 11.8692 4.51939 12.0303C4.23433 12.2155 4.07492 12.3987 3.93613 12.7067C3.84236 12.9141 3.76172 13.2181 3.73921 13.4576L3.72609 13.5844L3.62294 13.3972C3.33975 12.8819 3.01905 12.5638 2.63834 12.4208C2.3589 12.3141 1.94631 12.3423 1.38743 12.4994C0.89419 12.6403 0.755409 12.6201 0.0183653 12.298C-0.00413984 12.29 -0.00601527 12.3202 0.00336187 12.4973C0.0577493 13.4496 0.639132 14.1139 1.64249 14.3655C2.01382 14.4582 2.51456 14.4944 2.80713 14.4501L2.90465 14.436V14.6071C2.90465 15.2614 2.99467 16.1693 3.1222 16.7833C3.5723 18.9636 4.70506 20.7271 6.46796 21.9853C7.27252 22.5611 8.06583 22.9698 9.05605 23.316C10.0444 23.6623 11.0534 23.8676 12.2724 23.9743C12.67 24.0086 13.9434 24.0086 14.3354 23.9743C16.4696 23.7871 18.2625 23.2315 19.5866 22.3477C20.3161 21.8605 20.9519 21.2163 21.3664 20.5479C21.8877 19.7064 22.1465 18.8066 22.1465 17.8443C22.1465 16.4894 21.6514 15.2111 20.7306 14.1884C19.701 13.0429 18.3038 12.3806 16.6422 12.2517C16.2352 12.2195 15.5263 12.2397 15.1587 12.292C14.4498 12.3947 13.9097 12.5678 13.3039 12.8879C12.3718 13.3791 11.7173 13.9971 10.4889 15.5352C9.58868 16.6666 9.20421 17.0753 8.72223 17.4195C8.37527 17.6691 8.01332 17.8342 7.63448 17.9208C7.25189 18.0053 6.59924 17.9912 6.18665 17.8866C5.26956 17.6571 4.70319 17.0551 4.48939 16.0888C4.41812 15.7687 4.39937 15.5151 4.40874 15.044C4.41812 14.6554 4.46313 14.2025 4.49689 14.1622C4.50439 14.1542 4.57566 14.1381 4.65817 14.126C4.9995 14.0757 5.38772 13.9408 5.76468 13.7374C6.04224 13.5905 6.1979 13.4757 6.35731 13.3026C6.52047 13.1234 6.63113 12.9362 6.70614 12.7067C6.7549 12.5537 6.75865 12.5255 6.75865 12.2034C6.75865 11.8109 6.72865 11.6478 6.59362 11.3015C6.5186 11.1103 6.48672 11.064 6.48672 11.1465Z" fill="url(#paint3_linear_1117_7409)"/>
<defs>
<linearGradient id="paint0_linear_1117_7409" x1="5.96484" y1="12.1074" x2="17.9584" y2="11.3278" gradientUnits="userSpaceOnUse">
<stop stop-color="#9156F2"/>
<stop offset="0.734" stop-color="#C61ED4"/>
</linearGradient>
<linearGradient id="paint1_linear_1117_7409" x1="16.207" y1="8.71338" x2="22.3686" y2="8.3745" gradientUnits="userSpaceOnUse">
<stop stop-color="#9156F2"/>
<stop offset="0.734" stop-color="#C61ED4"/>
</linearGradient>
<linearGradient id="paint2_linear_1117_7409" x1="16.0742" y1="12.0928" x2="25.5719" y2="11.2316" gradientUnits="userSpaceOnUse">
<stop stop-color="#9156F2"/>
<stop offset="0.734" stop-color="#C61ED4"/>
</linearGradient>
<linearGradient id="paint3_linear_1117_7409" x1="-0.00195312" y1="24" x2="26.2824" y2="20.434" gradientUnits="userSpaceOnUse">
<stop stop-color="#9156F2"/>
<stop offset="0.734" stop-color="#C61ED4"/>
</linearGradient>
</defs>
</svg>
