<svg width="31" height="31" viewBox="0 0 31 31" fill="none" xmlns="http://www.w3.org/2000/svg">
<mask id="mask0_1518_2740" style="mask-type:alpha" maskUnits="userSpaceOnUse" x="0" y="0" width="31" height="30">
<path d="M11.0151 0.766337L3.33748 3.34343C3.07144 3.43273 2.85516 3.62971 2.74146 3.88627L0.894529 8.0537C0.754807 8.36897 0.787381 8.73399 0.98072 9.01953L14.8419 29.4914C15.2385 30.0772 16.1013 30.0772 16.498 29.4914L30.3591 9.01954C30.5525 8.73399 30.585 8.36897 30.4453 8.0537L28.5984 3.88627C28.4847 3.62971 28.2684 3.43273 28.0024 3.34343L20.3248 0.766337C20.2222 0.731911 20.1148 0.714355 20.0066 0.714355H11.3333C11.2251 0.714355 11.1176 0.731911 11.0151 0.766337Z" fill="#2188FF"/>
</mask>
<g mask="url(#mask0_1518_2740)">
<path d="M2.91992 3.48359L11.1699 0.714355H20.1699L28.4199 3.48359L30.6699 8.56051L15.6699 30.7144L0.669922 8.56051L2.91992 3.48359Z" fill="#F2A546"/>
<path d="M15.6699 30.7144L30.6699 8.56055L22.4199 11.3298L15.6699 30.7144Z" fill="white" fill-opacity="0.4"/>
<path d="M20.1699 5.7911L28.4199 3.4834L30.6699 8.56033L22.4199 11.3296L20.1699 5.7911Z" fill="white" fill-opacity="0.5"/>
<path d="M22.4199 11.3296H8.91992L15.6699 30.7142L22.4199 11.3296Z" fill="white" fill-opacity="0.1"/>
<path d="M11.1699 5.7915H20.1699L22.4199 11.33H8.91992L11.1699 5.7915Z" fill="white" fill-opacity="0.3"/>
<path d="M11.1699 0.714355L2.91992 3.48359L11.1699 5.79129H20.1699L28.4199 3.48359L20.1699 0.714355H11.1699Z" fill="white" fill-opacity="0.1"/>
<path d="M0.669922 8.56055L15.6699 30.7144L8.91992 11.3298L0.669922 8.56055Z" fill="black" fill-opacity="0.2"/>
<path d="M2.91992 3.4834L11.1699 5.7911L8.91992 11.3296L0.669922 8.56033L2.91992 3.4834Z" fill="black" fill-opacity="0.3"/>
<path d="M10.856 0.292328L3.17838 2.86942C2.77931 3.00337 2.4549 3.29884 2.28434 3.68368L0.43741 7.85112C0.227827 8.32402 0.276687 8.87154 0.566696 9.29986L14.4278 29.7717C15.0228 30.6504 16.317 30.6504 16.912 29.7717L30.7731 9.29986C31.0632 8.87154 31.112 8.32402 30.9024 7.85112L29.0555 3.68368C28.8849 3.29884 28.5605 3.00337 28.1615 2.86942L20.4839 0.292328C20.33 0.240688 20.1688 0.214355 20.0066 0.214355H11.3333C11.171 0.214355 11.0098 0.240689 10.856 0.292328Z" stroke="black" stroke-linecap="round" stroke-linejoin="round"/>
</g>
</svg>
