<svg width="34" height="35" viewBox="0 0 34 35" fill="none" xmlns="http://www.w3.org/2000/svg">
<rect x="1.5" y="2.21436" width="31" height="31" rx="15.5" fill="#EE8C45"/>
<rect x="1.5" y="2.21436" width="31" height="31" rx="15.5" stroke="url(#paint0_linear_1518_2784)" stroke-width="3"/>
<path fill-rule="evenodd" clip-rule="evenodd" d="M8.3982 13.5957C8.0056 14.0119 7.87082 14.3396 8.14183 14.5379C8.37329 14.7083 8.67214 14.6526 8.93583 14.6526C10.6161 14.6559 12.2627 14.7673 13.7701 15.1737C13.7335 15.9619 14.3077 16.7124 15.2336 17.7365C15.6511 18.197 15.9484 18.3739 16.1682 18.1069C16.4846 17.7251 16.5198 17.0942 16.4524 16.6075L16.4231 16.3978C17.7562 17.3924 19.0643 18.9131 20.3491 20.9237L19.4364 22.5246C19.2416 23.0965 19.6049 23.2849 19.9623 23.0424C20.9541 22.4673 21.9869 22.051 23.0856 21.938C23.2965 21.9167 23.5822 21.9478 23.7565 21.915C24.1828 21.8347 24.2355 21.3218 23.7756 21.0384L22.2594 20.3075C22.0147 16.383 20.5498 12.6437 17.7195 10.6888C18.4374 10.0448 18.6893 9.42538 18.4476 8.81253C17.3196 8.47497 15.2233 9.05177 14.9083 9.87273C12.8765 9.84815 10.682 11.3065 8.3982 13.5957ZM14.1744 25.9362C14.0704 25.8854 14.0147 25.7249 14.0499 25.5774C14.0865 25.4299 14.1993 25.3512 14.3033 25.402C15.1808 25.8314 15.7946 26.0772 16.322 26.1345C16.8347 26.1902 17.2727 26.0657 17.8074 25.756C18.7274 25.2218 19.3441 25.4299 20.0195 25.656C20.6743 25.8756 21.3892 26.1165 22.5304 25.6085C22.5362 25.6069 22.5406 25.6036 22.5465 25.602C23.4665 25.2267 24.0495 25.4365 24.7702 25.697C25.0837 25.8101 25.4251 25.9346 25.8279 26.0165C25.9378 26.0378 26.014 26.182 25.9978 26.3377C25.9817 26.4934 25.8807 26.5999 25.7708 26.5786C25.3416 26.4901 24.9929 26.3639 24.6706 26.2476C24.007 26.0083 23.4694 25.8133 22.6549 26.146C22.652 26.1476 22.6505 26.1476 22.6476 26.1493C21.4009 26.7048 20.6304 26.4459 19.9257 26.2083C19.3148 26.0034 18.7567 25.815 17.9569 26.2787C17.3621 26.6245 16.8713 26.7621 16.2912 26.6998C15.7287 26.6376 15.0856 26.3819 14.1744 25.9362ZM14.1744 24.0895C14.0704 24.0387 14.0147 23.8781 14.0499 23.7306C14.0865 23.5832 14.1993 23.5045 14.3033 23.5553C15.1808 23.9846 15.7946 24.2304 16.322 24.2878C16.8347 24.3435 17.2727 24.219 17.8074 23.9092C18.7274 23.3751 19.3441 23.5832 20.0195 23.8093C20.6743 24.0289 21.3892 24.2697 22.5304 23.7618C22.5362 23.7601 22.5406 23.7569 22.5465 23.7552C23.4665 23.38 24.0495 23.5897 24.7702 23.8503C25.0837 23.9633 25.4251 24.0879 25.8279 24.1698C25.9378 24.1911 26.014 24.3353 25.9978 24.491C25.9817 24.6466 25.8807 24.7531 25.7708 24.7318C25.3416 24.6434 24.9929 24.5172 24.6706 24.4008C24.007 24.1616 23.4694 23.9666 22.6549 24.2992C22.652 24.3009 22.6505 24.3009 22.6476 24.3025C21.4009 24.858 20.6304 24.5991 19.9257 24.3615C19.3148 24.1567 18.7567 23.9682 17.9569 24.432C17.3621 24.7777 16.8713 24.9154 16.2912 24.8531C15.7287 24.7908 15.0856 24.5352 14.1744 24.0895ZM11.5038 12.3995C11.6708 12.4323 11.7983 12.5945 11.7983 12.7911C11.7983 13.0107 11.6386 13.1893 11.4409 13.1893C11.2592 13.1893 11.1083 13.0386 11.0863 12.8436C11.0629 12.5552 11.2182 12.4208 11.5038 12.3995Z" fill="white"/>
<defs>
<linearGradient id="paint0_linear_1518_2784" x1="0.34" y1="8.08102" x2="42.2764" y2="12.0891" gradientUnits="userSpaceOnUse">
<stop stop-color="#D6600B"/>
<stop offset="0.167733" stop-color="#F58C41"/>
<stop offset="0.316151" stop-color="#FBCFB0"/>
<stop offset="0.482967" stop-color="#F59047"/>
<stop offset="0.59721" stop-color="#FBD0B1"/>
<stop offset="0.744539" stop-color="#F58B40"/>
<stop offset="0.898612" stop-color="#F58B40"/>
</linearGradient>
</defs>
</svg>
