<svg width="34" height="35" viewBox="0 0 34 35" fill="none" xmlns="http://www.w3.org/2000/svg">
<rect x="1.5" y="2.21436" width="31" height="31" rx="15.5" fill="url(#paint0_linear_1518_2796)"/>
<rect x="1.5" y="2.21436" width="31" height="31" rx="15.5" stroke="url(#paint1_linear_1518_2796)" stroke-width="3"/>
<path fill-rule="evenodd" clip-rule="evenodd" d="M12.4074 20.3153C12.1847 20.6614 11.921 20.969 11.625 21.2502L11.184 20.8657L11.1562 21.6516C11.1254 21.6757 11.0947 21.6997 11.0624 21.7237L10.5746 21.3007L10.5247 22.0939C10.5042 22.1059 10.4837 22.1203 10.4647 22.1323L10.0251 21.642L9.92552 22.4424L9.91673 22.4472C9.91966 22.452 9.92113 22.4544 9.92406 22.4592L9.92259 22.4664L9.92699 22.464C10.5028 23.4326 11.7408 23.4158 13.2879 22.9375L16.076 22.3751C16.3602 23.6033 16.9038 24.4325 17.6715 24.9204C18.3118 24.1128 18.5916 22.7909 18.5813 21.3728C19.8677 20.9787 21.1555 21.2887 22.4433 22.3703L22.9048 23.7211C22.3979 23.8004 21.9393 24.1729 21.5159 24.6969C21.1467 25.1535 20.3101 26.2399 21.2493 26.5836C21.9965 26.8192 22.7232 26.5812 23.4264 25.752C24.0315 26.5596 24.7406 26.848 25.5435 26.6581C26.0768 26.4274 26.1105 25.9876 25.8116 25.4107C25.227 24.5863 24.6293 23.9205 23.9919 23.661C23.633 18.2146 21.2654 14.381 17.5792 12.7875L17.0313 9.13659C16.9536 8.66069 16.6664 8.51167 16.3148 9.08852L13.9296 12.8548C11.9488 13.7922 10.3445 15.3376 8.98493 17.3397C8.76223 17.6666 7.95643 18.7218 8.00185 19.1928C8.04873 19.6687 8.64356 20.123 9.21202 20.4138L9.62225 21.2575L9.81417 20.6662C9.87864 20.6854 9.93871 20.7023 9.99145 20.7143L10.2347 21.2743L10.4617 20.7383C11.0712 20.7215 11.7247 20.5628 12.4074 20.3153ZM11.4683 17.3998C11.5445 17.3998 11.6045 17.4984 11.6045 17.6234C11.6045 17.7459 11.543 17.8469 11.4683 17.8469C11.3936 17.8469 11.332 17.7483 11.332 17.6234C11.332 17.5008 11.3936 17.3998 11.4683 17.3998ZM11.5987 16.9432C11.7847 16.996 11.9268 17.2628 11.9268 17.5801C11.9268 17.9382 11.7496 18.2266 11.5298 18.2266C11.3276 18.2266 11.1606 17.9815 11.1357 17.6618L11.5987 16.9432Z" fill="white"/>
<defs>
<linearGradient id="paint0_linear_1518_2796" x1="-0.679999" y1="6.94768" x2="42.3783" y2="11.0679" gradientUnits="userSpaceOnUse">
<stop stop-color="#DA8207"/>
<stop offset="0.0932979" stop-color="#DD9318"/>
<stop offset="0.230387" stop-color="#FFCB3C"/>
<stop offset="0.678823" stop-color="#FFCB3C"/>
<stop offset="0.799224" stop-color="#E39C1E"/>
<stop offset="0.835628" stop-color="#FBC63A"/>
</linearGradient>
<linearGradient id="paint1_linear_1518_2796" x1="17" y1="0.714355" x2="17" y2="34.7144" gradientUnits="userSpaceOnUse">
<stop stop-color="#F2D56B" stop-opacity="0.59"/>
<stop offset="0.552083" stop-color="#F7C746" stop-opacity="0.705938"/>
<stop offset="1" stop-color="#FBBC28" stop-opacity="0.8"/>
</linearGradient>
</defs>
</svg>
