<svg width="16" height="17" viewBox="0 0 16 17" fill="none" xmlns="http://www.w3.org/2000/svg">
<path d="M7.30756 0.761788L5.70898 2.17228H8.00153V0.500006C7.75412 0.499195 7.50644 0.586456 7.30756 0.761788Z" fill="#FDF0BC"/>
<path d="M8.68686 0.760162C8.49011 0.587531 8.24616 0.50081 8.00195 0.5V2.17227H10.2945L8.68686 0.760162Z" fill="url(#paint0_linear_1128_2429)"/>
<path d="M2.42354 3.07431L2.09375 5.19612L3.84989 3.70296L2.78906 2.42188C2.59897 2.58235 2.4646 2.81063 2.42354 3.07431Z" fill="#FDF0BC"/>
<path d="M3.47877 2.17446C3.21857 2.17014 2.97649 2.2628 2.78906 2.42139L3.84989 3.70247L5.60603 2.20931L3.47877 2.17446Z" fill="url(#paint1_linear_1128_2429)"/>
<path d="M0.150606 8.02616L1.24369 9.86647L1.64174 7.57878L0.0167696 7.28809C-0.0272204 7.53501 0.0146368 7.79733 0.150606 8.02616Z" fill="#FDF0BC"/>
<path d="M0.389227 6.64991C0.187406 6.81632 0.0607684 7.04488 0.0175781 7.28829L1.64281 7.57871L2.04085 5.29102L0.389227 6.64991Z" fill="url(#paint2_linear_1128_2429)"/>
<path d="M1.54905 13.3002L3.55393 13.9977L2.40779 11.9858L0.978516 12.822C1.10142 13.0397 1.29978 13.2134 1.54905 13.3002Z" fill="url(#paint3_linear_1128_2429)"/>
<path d="M0.859003 12.0913C0.809681 12.3501 0.85767 12.6078 0.978976 12.8226L2.40825 11.9865L1.26211 9.97461L0.859003 12.0913Z" fill="url(#paint4_linear_1128_2429)"/>
<path d="M5.96693 16.4286L7.94515 15.6573L5.79097 14.8628L5.22656 16.4343C5.45878 16.5207 5.72112 16.5245 5.96693 16.4286Z" fill="url(#paint5_linear_1128_2429)"/>
<path d="M4.67062 15.9519C4.79699 16.1824 4.99721 16.3485 5.22649 16.4339L5.7909 14.8624L3.63672 14.0679L4.67062 15.9519Z" fill="url(#paint6_linear_1128_2429)"/>
<path d="M11.337 15.9478L12.3632 14.0684L10.209 14.8629L10.7734 16.4344C11.0059 16.3493 11.2093 16.1815 11.337 15.9478Z" fill="url(#paint7_linear_1128_2429)"/>
<path d="M10.0417 16.4268C10.2849 16.5211 10.5435 16.5178 10.7733 16.4338L10.2089 14.8623L8.05469 15.6568L10.0417 16.4268Z" fill="url(#paint8_linear_1128_2429)"/>
<path d="M15.144 12.0826L14.7379 9.97461L13.5918 11.9865L15.0211 12.8226C15.1453 12.6057 15.1946 12.3447 15.144 12.0826Z" fill="url(#paint9_linear_1128_2429)"/>
<path d="M14.4558 13.2931C14.7016 13.207 14.8978 13.0359 15.0207 12.822L13.5915 11.9858L12.4453 13.9977L14.4558 13.2931Z" fill="url(#paint10_linear_1128_2429)"/>
<path d="M15.6074 6.64126L13.959 5.29102L14.357 7.57871L15.9823 7.28829C15.9404 7.04137 15.8124 6.8093 15.6074 6.64126Z" fill="url(#paint11_linear_1128_2429)"/>
<path d="M15.8508 8.01697C15.9846 7.79085 16.0265 7.53204 15.9846 7.28809L14.3594 7.5785L14.7574 9.8662L15.8508 8.01697Z" fill="url(#paint12_linear_1128_2429)"/>
<path d="M12.5138 2.1701L10.3945 2.20927L12.1507 3.70243L13.2115 2.42135C13.0225 2.25979 12.7775 2.16524 12.5138 2.1701Z" fill="url(#paint13_linear_1128_2429)"/>
<path d="M13.5709 3.06728C13.5298 2.80685 13.3978 2.58154 13.2112 2.42188L12.1504 3.70296L13.9065 5.19612L13.5709 3.06728Z" fill="url(#paint14_linear_1128_2429)"/>
<path d="M7.99912 14.3876C11.0912 14.3876 13.5979 11.8476 13.5979 8.71432C13.5979 5.58104 11.0912 3.04102 7.99912 3.04102C4.90703 3.04102 2.40039 5.58104 2.40039 8.71432C2.40039 11.8476 4.90703 14.3876 7.99912 14.3876Z" fill="url(#paint15_radial_1128_2429)"/>
<path d="M7.99928 2.53467C4.63097 2.53467 1.90039 5.30135 1.90039 8.71452C1.90039 12.1277 4.63097 14.8946 7.99928 14.8946C11.3676 14.8946 14.0982 12.1277 14.0982 8.71452C14.0982 5.30135 11.3676 2.53467 7.99928 2.53467ZM7.99928 14.3873C4.90744 14.3873 2.40108 11.8475 2.40108 8.71452C2.40108 5.5815 4.90744 3.04175 7.99928 3.04175C11.0911 3.04175 13.5975 5.5815 13.5975 8.71452C13.5975 11.8475 11.0911 14.3873 7.99928 14.3873Z" fill="url(#paint16_linear_1128_2429)"/>
<path d="M7.99989 1.74609C4.20182 1.74609 1.12305 4.86587 1.12305 8.71453C1.12305 12.5632 4.20182 15.683 7.99989 15.683C11.798 15.683 14.8767 12.5632 14.8767 8.71453C14.8767 4.86587 11.798 1.74609 7.99989 1.74609ZM7.99989 14.8917C4.63319 14.8917 1.90394 12.1261 1.90394 8.71453C1.90394 5.30299 4.63319 2.53765 7.99989 2.53765C11.3666 2.53765 14.0958 5.30326 14.0958 8.7148C14.0958 12.1264 11.3666 14.8917 7.99989 14.8917Z" fill="url(#paint17_linear_1128_2429)"/>
<path d="M6.45746 11.5581C6.36415 11.5581 6.2775 11.5278 6.20098 11.4738C6.19112 11.467 6.18445 11.4603 6.17779 11.4535C6.17112 11.4503 6.16766 11.4435 6.16446 11.44C6.15113 11.4297 6.14446 11.4198 6.1346 11.4098C6.12793 11.403 6.12447 11.3962 6.11807 11.3895L6.11487 11.3863C6.10821 11.3795 6.10474 11.3727 6.10154 11.366L6.09487 11.3557C6.08154 11.3355 6.07168 11.3152 6.06155 11.2949C6.05835 11.2849 6.05488 11.2747 6.05142 11.2647C6.04822 11.2544 6.04475 11.2412 6.04155 11.2309C6.03809 11.2174 6.03489 11.2007 6.03142 11.1836C6.03142 11.1769 6.02822 11.1669 6.02822 11.1601C6.02822 11.1466 6.02502 11.1331 6.02502 11.1196C6.02502 11.0961 6.02822 11.0723 6.03169 11.0453L6.28816 9.53351L5.20574 8.46369C5.18575 8.44343 5.16575 8.41992 5.14922 8.39615C5.12923 8.36589 5.1159 8.34212 5.10603 8.3151C5.10283 8.30511 5.09617 8.2916 5.0927 8.27458C5.08257 8.23406 5.07617 8.19353 5.07617 8.14977C5.07617 8.13626 5.07617 8.12626 5.07617 8.11276C5.07617 8.09249 5.07937 8.07223 5.08604 8.05197C5.08604 8.04873 5.08924 8.04197 5.08924 8.03846C5.0927 8.0282 5.0927 8.0182 5.0959 8.00821C5.0959 8.00496 5.0991 7.99794 5.10257 7.98794C5.10577 7.97768 5.10923 7.96768 5.1159 7.95769C5.12576 7.93742 5.13589 7.91716 5.15242 7.89366C5.15909 7.88015 5.16895 7.87016 5.17908 7.85989C5.17908 7.85989 5.17908 7.85665 5.18228 7.85665L5.2356 7.76885H5.28226C5.28892 7.76533 5.29212 7.76209 5.29879 7.75858C5.30545 7.75534 5.31878 7.74858 5.32865 7.74183C5.34198 7.73508 5.35851 7.72832 5.3785 7.72157C5.38517 7.71833 5.39503 7.71481 5.40516 7.71481C5.41849 7.71157 5.43182 7.70806 5.44835 7.70455L6.94695 7.48518L7.60627 6.11845C7.67958 5.96663 7.82942 5.87207 7.99578 5.87207C8.11575 5.87207 8.23226 5.92259 8.31544 6.01039C8.32877 6.02714 8.3421 6.04065 8.35196 6.05767C8.36529 6.07793 8.37862 6.09819 8.38849 6.11845L9.05794 7.48842L10.5531 7.70779C10.7197 7.73129 10.8562 7.84962 10.9061 8.01145C10.9095 8.02171 10.9127 8.0282 10.9127 8.03846C10.9127 8.0417 10.9127 8.0417 10.9159 8.04522C10.9191 8.05548 10.9226 8.06548 10.9226 8.07899C10.9226 8.08223 10.9226 8.08223 10.9226 8.08574C10.9258 8.09925 10.9258 8.10924 10.9258 8.12275C10.9292 8.18678 10.9191 8.25432 10.8925 8.3151C10.8823 8.34212 10.8693 8.36562 10.8525 8.3894L10.849 8.39264C10.8325 8.41614 10.8125 8.43992 10.7925 8.46018L9.71006 9.53L9.96653 11.0383C9.99319 11.2036 9.93001 11.369 9.79324 11.4703C9.75991 11.4938 9.71992 11.5175 9.67993 11.5311C9.67646 11.5311 9.67326 11.5346 9.6666 11.5346C9.62341 11.5481 9.57995 11.5548 9.53676 11.5548C9.46691 11.5548 9.39679 11.5381 9.33361 11.5043L7.99498 10.7922L6.65635 11.5043C6.59716 11.5413 6.52731 11.5581 6.45746 11.5581Z" fill="#DF771E"/>
<path d="M7.99543 6.08789V8.87862L7.07617 7.68749L7.79548 6.21297C7.83893 6.13193 7.91891 6.08789 7.99543 6.08789Z" fill="#FFFAF6"/>
<path d="M10.7042 8.08269L8 8.87911L8.91899 7.68799L10.5242 7.92411C10.6143 7.94086 10.6775 8.00488 10.7042 8.08269Z" fill="#FEE0AC"/>
<path d="M9.66772 11.2979L7.99609 8.87842L9.48136 9.45547L9.75436 11.0753C9.77409 11.1699 9.7341 11.2507 9.66772 11.2979Z" fill="#ECB76B"/>
<path d="M7.99415 8.87842V10.5488L6.55875 11.3147C6.47556 11.3585 6.38892 11.345 6.32227 11.2979L7.99415 8.87842Z" fill="#F1A341"/>
<path d="M8.9134 7.68749L7.99414 8.87862V6.08789C8.05413 6.08789 8.11411 6.11139 8.1573 6.15867C8.16397 6.16543 8.17063 6.17542 8.1773 6.18569C8.18396 6.19595 8.19063 6.20595 8.19383 6.21595L8.9134 7.68749Z" fill="#FFE9BA"/>
<path d="M10.6973 8.23404C10.6906 8.24754 10.6839 8.26105 10.6773 8.27456C10.6671 8.28807 10.6573 8.29806 10.6474 8.31157L9.48526 9.45893L8 8.88187L10.7042 8.08545C10.7042 8.08869 10.7074 8.0922 10.7074 8.09572C10.7074 8.09923 10.7109 8.10247 10.7109 8.10922C10.7109 8.11274 10.7109 8.11274 10.7109 8.11274C10.7109 8.11598 10.7109 8.11949 10.7109 8.12273C10.7109 8.12949 10.7109 8.133 10.7109 8.13948C10.7141 8.16974 10.7106 8.20351 10.6973 8.23404Z" fill="#E49632"/>
<path d="M9.66603 11.2979C9.6495 11.3115 9.6295 11.3215 9.60604 11.3282C9.60284 11.3282 9.60284 11.3282 9.59938 11.3314C9.54606 11.3482 9.48607 11.345 9.42955 11.3147L7.99414 10.5488V8.87842L9.66603 11.2979Z" fill="#E29136"/>
<path d="M7.99628 8.87842L6.32466 11.2979C6.32146 11.2944 6.318 11.2912 6.3148 11.2877C6.3116 11.2844 6.30813 11.2809 6.30467 11.2774C6.30147 11.2742 6.298 11.2707 6.29134 11.2639C6.28787 11.2607 6.28467 11.2572 6.2812 11.2536C6.27774 11.2501 6.27801 11.2504 6.27801 11.2469C6.27481 11.2436 6.27134 11.2401 6.27134 11.2366C6.26468 11.2266 6.25801 11.2164 6.25481 11.2064C6.25161 11.2031 6.25161 11.1961 6.24815 11.1896C6.24495 11.1829 6.24495 11.1793 6.24148 11.1729C6.23828 11.1661 6.23828 11.1561 6.23828 11.1494C6.23828 11.1461 6.23828 11.1391 6.23828 11.1359C6.23828 11.1291 6.23828 11.1223 6.23828 11.1156C6.23828 11.1021 6.23828 11.0886 6.24148 11.0751L6.51449 9.4552L7.99628 8.87842Z" fill="#FED891"/>
<path d="M7.9952 8.87831L5.29102 8.08189C5.29102 8.07865 5.29422 8.07513 5.29422 8.07162C5.29741 8.06487 5.29741 8.05811 5.30088 8.05487C5.30755 8.04136 5.31421 8.03137 5.32088 8.0211C5.32408 8.01435 5.32754 8.01084 5.33421 8.00435C5.33767 8.00111 5.34087 7.99409 5.34754 7.99084C5.35074 7.9876 5.35767 7.98085 5.36087 7.97734C5.36407 7.97382 5.37073 7.97058 5.3742 7.96707C5.38086 7.96383 5.38753 7.9568 5.39419 7.95356C5.39739 7.95032 5.40406 7.94681 5.41072 7.94681C5.42085 7.94357 5.42725 7.94005 5.43738 7.93654C5.44058 7.93654 5.44405 7.9333 5.45071 7.9333C5.45738 7.93006 5.46724 7.93006 5.47737 7.92655L7.08261 7.69043L7.9952 8.87831Z" fill="#FFF3D9"/>
<path d="M7.9977 8.87877L6.5159 9.45907L5.35376 8.31171C5.34043 8.30144 5.33377 8.2882 5.3239 8.2747C5.31724 8.26119 5.30737 8.24768 5.30391 8.23417C5.30071 8.22742 5.29724 8.22066 5.29724 8.21391C5.29057 8.19365 5.28711 8.17014 5.28711 8.14988C5.28711 8.14313 5.28711 8.13637 5.28711 8.12962C5.28711 8.11963 5.28711 8.11287 5.29057 8.10261C5.29057 8.09936 5.29377 8.09585 5.29377 8.0891C5.29377 8.08586 5.29697 8.08234 5.29697 8.0791L7.9977 8.87877Z" fill="#ECB76B"/>
<defs>
<linearGradient id="paint0_linear_1128_2429" x1="8.11404" y1="1.33614" x2="10.2193" y2="1.33614" gradientUnits="userSpaceOnUse">
<stop stop-color="#FEE998"/>
<stop offset="1" stop-color="#FCC15B"/>
</linearGradient>
<linearGradient id="paint1_linear_1128_2429" x1="3.43007" y1="2.96731" x2="5.55403" y2="1.20839" gradientUnits="userSpaceOnUse">
<stop stop-color="#FEE998"/>
<stop offset="1" stop-color="#FCC15B"/>
</linearGradient>
<linearGradient id="paint2_linear_1128_2429" x1="2.07846" y1="5.28623" x2="0.86981" y2="7.24576" gradientUnits="userSpaceOnUse">
<stop stop-color="#FCC15B"/>
<stop offset="1" stop-color="#FEE998"/>
</linearGradient>
<linearGradient id="paint3_linear_1128_2429" x1="1.51905" y1="12.3571" x2="3.59614" y2="13.7049" gradientUnits="userSpaceOnUse">
<stop stop-color="#FFC05F"/>
<stop offset="1" stop-color="#ED892B"/>
</linearGradient>
<linearGradient id="paint4_linear_1128_2429" x1="1.28561" y1="10.0184" x2="1.66218" y2="12.3625" gradientUnits="userSpaceOnUse">
<stop stop-color="#FCC15B"/>
<stop offset="1" stop-color="#FEE998"/>
</linearGradient>
<linearGradient id="paint5_linear_1128_2429" x1="5.61194" y1="15.6765" x2="7.64692" y2="16.1228" gradientUnits="userSpaceOnUse">
<stop stop-color="#FEAC3E"/>
<stop offset="1" stop-color="#F08223"/>
</linearGradient>
<linearGradient id="paint6_linear_1128_2429" x1="3.53507" y1="14.0499" x2="5.41789" y2="15.5702" gradientUnits="userSpaceOnUse">
<stop stop-color="#FFA135"/>
<stop offset="1" stop-color="#FEB431"/>
</linearGradient>
<linearGradient id="paint7_linear_1128_2429" x1="12.3712" y1="14.0549" x2="10.492" y2="15.6513" gradientUnits="userSpaceOnUse">
<stop stop-color="#FFAA3D"/>
<stop offset="1" stop-color="#ED8B1C"/>
</linearGradient>
<linearGradient id="paint8_linear_1128_2429" x1="8.06285" y1="15.8073" x2="10.4343" y2="15.6773" gradientUnits="userSpaceOnUse">
<stop stop-color="#FF962D"/>
<stop offset="1" stop-color="#E56005"/>
</linearGradient>
<linearGradient id="paint9_linear_1128_2429" x1="14.8251" y1="9.98306" x2="14.3361" y2="12.3325" gradientUnits="userSpaceOnUse">
<stop stop-color="#FDBD41"/>
<stop offset="1" stop-color="#FEB334"/>
</linearGradient>
<linearGradient id="paint10_linear_1128_2429" x1="15.4497" y1="10.3968" x2="13.1114" y2="14.3935" gradientUnits="userSpaceOnUse">
<stop stop-color="#F6942F"/>
<stop offset="1" stop-color="#EA6F11"/>
</linearGradient>
<linearGradient id="paint11_linear_1128_2429" x1="13.8439" y1="5.35867" x2="15.2492" y2="7.41369" gradientUnits="userSpaceOnUse">
<stop stop-color="#FDBD41"/>
<stop offset="1" stop-color="#FEB334"/>
</linearGradient>
<linearGradient id="paint12_linear_1128_2429" x1="14.6715" y1="9.86034" x2="15.2247" y2="7.44797" gradientUnits="userSpaceOnUse">
<stop stop-color="#FD9D24"/>
<stop offset="1" stop-color="#FF9515"/>
</linearGradient>
<linearGradient id="paint13_linear_1128_2429" x1="12.6545" y1="3.0304" x2="10.5111" y2="2.0101" gradientUnits="userSpaceOnUse">
<stop stop-color="#FCC15B"/>
<stop offset="1" stop-color="#FEE998"/>
</linearGradient>
<linearGradient id="paint14_linear_1128_2429" x1="12.6645" y1="2.89801" x2="13.7033" y2="5.17611" gradientUnits="userSpaceOnUse">
<stop stop-color="#FF9515"/>
<stop offset="1" stop-color="#FFBE41"/>
</linearGradient>
<radialGradient id="paint15_radial_1128_2429" cx="0" cy="0" r="1" gradientUnits="userSpaceOnUse" gradientTransform="translate(7.99916 8.71421) scale(5.59873 5.67331)">
<stop offset="0.8428" stop-color="#FAAA31"/>
<stop offset="1" stop-color="#F57E16"/>
</radialGradient>
<linearGradient id="paint16_linear_1128_2429" x1="7.99932" y1="2.53456" x2="7.99932" y2="14.8948" gradientUnits="userSpaceOnUse">
<stop offset="0.0226" stop-color="#FD9A18"/>
<stop offset="0.3764" stop-color="#FEC752"/>
<stop offset="1" stop-color="#FFA422"/>
</linearGradient>
<linearGradient id="paint17_linear_1128_2429" x1="7.99993" y1="1.72567" x2="7.99993" y2="15.6626" gradientUnits="userSpaceOnUse">
<stop stop-color="#FFDB69"/>
<stop offset="0.1799" stop-color="#FEE7B0"/>
<stop offset="0.24" stop-color="#FEE9BA"/>
<stop offset="0.2592" stop-color="#FDECD0"/>
<stop offset="0.2953" stop-color="#FEDA92"/>
<stop offset="0.3254" stop-color="#FFCD64"/>
<stop offset="0.3405" stop-color="#FFC853"/>
<stop offset="0.7613" stop-color="#FF9114"/>
<stop offset="1" stop-color="#F57E16"/>
</linearGradient>
</defs>
</svg>
