<svg width="41" height="35" viewBox="0 0 41 35" fill="none" xmlns="http://www.w3.org/2000/svg">
<path d="M1.12277 27.5866L5.42367 24.1459C5.55727 24.039 5.75306 24.0654 5.8537 24.2037L9.48119 29.1915C9.58294 29.3315 9.54559 29.5282 9.39963 29.6211L4.63001 32.6563C4.43029 32.7834 4.16895 32.6399 4.16895 32.4032V29.176C4.16895 29.0421 4.08015 28.9243 3.95136 28.8875L1.22776 28.1094C0.993464 28.0424 0.932493 27.7389 1.12277 27.5866Z" fill="url(#paint0_linear_1529_414)" stroke="url(#paint1_linear_1529_414)" stroke-width="0.4"/>
<path d="M35.6415 33.2516L31.55 29.5643C31.4229 29.4498 31.4172 29.2523 31.5374 29.1306L35.8723 24.7436C35.9939 24.6205 36.1941 24.6255 36.3094 24.7545L40.0766 28.97C40.2343 29.1465 40.1351 29.4276 39.9015 29.4659L36.7168 29.9883C36.5846 30.01 36.4829 30.1166 36.4674 30.2497L36.1403 33.0633C36.1122 33.3054 35.8225 33.4147 35.6415 33.2516Z" fill="url(#paint2_linear_1529_414)" stroke="url(#paint3_linear_1529_414)" stroke-width="0.4"/>
<rect x="5.16895" y="2.44971" width="31.0004" height="31.0001" rx="15.5001" fill="url(#paint4_linear_1529_414)"/>
<rect x="5.16895" y="2.44971" width="31.0004" height="31.0001" rx="15.5001" stroke="url(#paint5_linear_1529_414)" stroke-width="3"/>
<path d="M19.1348 8.96C18.7705 8.99775 18.4019 9.0823 18.0067 9.21668C17.8097 9.28462 17.6888 9.34048 17.5143 9.44617C17.0178 9.74815 16.6366 10.1271 16.4017 10.5514C15.9755 11.3184 16.081 12.2409 16.7041 13.2042C16.9784 13.627 17.3638 13.9138 17.8716 14.0724C18.25 14.1902 18.5229 14.2294 19.0364 14.24C19.5231 14.2505 19.7439 14.2339 20.3558 14.1464C20.8228 14.0799 21.3095 14.166 21.6795 14.3789C22.0635 14.6023 22.3054 14.9073 22.5924 15.5354C22.8132 16.0171 22.9989 16.5561 23.3238 17.6417C23.3674 17.7866 23.4181 17.9316 23.4364 17.9618C23.4842 18.0388 23.5334 18.0509 23.5813 17.998L23.6192 17.9588L23.6178 17.2446C23.6164 16.5833 23.6066 16.2798 23.5686 15.7544C23.3731 13.0321 22.7401 11.0315 21.7287 9.94292C21.242 9.419 20.6948 9.11099 20.0323 8.9902C19.841 8.95396 19.3458 8.93735 19.1348 8.96Z" fill="white"/>
<path d="M25.6573 9.98102C25.5166 10.0037 25.3169 10.0565 25.21 10.1018C24.5221 10.3857 24.0931 11.1512 23.9215 12.4028C23.8554 12.8845 23.8455 13.0853 23.8413 14.109C23.8399 14.645 23.8343 15.1689 23.83 15.2731C23.823 15.4392 23.8244 15.4663 23.8441 15.4739C23.944 15.5146 23.9693 15.4648 24.1339 14.9243C24.3322 14.272 24.4743 13.9595 24.7078 13.6636C24.9343 13.3782 25.224 13.188 25.5884 13.0898C25.7178 13.0536 25.8542 13.0355 26.1707 13.0068C26.8797 12.9464 27.4212 12.4949 27.6139 11.8049C27.6632 11.6268 27.6772 11.3082 27.6421 11.13C27.5028 10.4083 26.9064 9.99913 25.9597 9.97951C25.8162 9.97649 25.6812 9.978 25.6573 9.98102Z" fill="white"/>
<path d="M27.479 12.8508C26.5759 12.9218 25.8459 13.3626 25.1932 14.2293C25.0764 14.3848 24.8077 14.8121 24.7051 15.0069C24.3337 15.709 24.0102 16.6194 23.809 17.5208C23.7077 17.9768 23.7049 18.019 23.7724 18.019C23.8245 18.019 23.854 17.9783 23.9384 17.7956C24.1677 17.2988 24.6235 16.7447 25.0638 16.4292C25.3507 16.2223 25.6742 16.0819 25.995 16.023C26.137 15.9973 26.2046 15.9943 26.417 16.0004C26.6336 16.0064 26.7067 16.0155 26.9262 16.0623C27.7575 16.2389 28.3764 16.2072 28.8842 15.9626C29.0854 15.866 29.3133 15.6682 29.4427 15.4749C29.6706 15.1382 29.7324 14.6339 29.6016 14.1946C29.4596 13.722 29.1121 13.3038 28.669 13.0743C28.3272 12.8961 27.9024 12.8176 27.479 12.8508Z" fill="white"/>
<path d="M16.5357 17.3096C16.5357 17.4093 16.4246 17.5527 16.2938 17.6252C16.1616 17.6962 16.0308 17.7309 15.7944 17.755C15.4568 17.7898 15.2487 17.8517 15.0602 17.9725C14.8463 18.1114 14.7268 18.2488 14.6227 18.4798C14.5524 18.6353 14.4919 18.8633 14.475 19.043L14.4651 19.1381L14.3878 18.9977C14.1754 18.6111 13.9348 18.3726 13.6493 18.2654C13.4397 18.1854 13.1302 18.2065 12.711 18.3243C12.3411 18.43 12.237 18.4149 11.6842 18.1733C11.6673 18.1672 11.6659 18.1899 11.6729 18.3228C11.7137 19.0369 12.1498 19.5352 12.9023 19.7239C13.1809 19.7934 13.5564 19.8205 13.7759 19.7873L13.849 19.7767V19.9051C13.849 20.3958 13.9165 21.0767 14.0122 21.5372C14.3498 23.1724 15.1994 24.4951 16.5217 25.4387C17.1251 25.8705 17.7201 26.177 18.4629 26.4367C19.2042 26.6964 19.961 26.8504 20.8753 26.9305C21.1735 26.9561 22.1286 26.9561 22.4226 26.9305C24.0234 26.79 25.3681 26.3733 26.3612 25.7105C26.9084 25.3451 27.3853 24.8619 27.6962 24.3607C28.0872 23.7296 28.2813 23.0546 28.2813 22.3329C28.2813 21.3168 27.91 20.358 27.2193 19.591C26.447 18.7319 25.3991 18.2352 24.1528 18.1385C23.8475 18.1144 23.3158 18.1295 23.0401 18.1687C22.5084 18.2457 22.1033 18.3756 21.6489 18.6157C20.9498 18.9841 20.4589 19.4476 19.5375 20.6011C18.8624 21.4497 18.574 21.7562 18.2125 22.0144C17.9522 22.2016 17.6808 22.3254 17.3966 22.3903C17.1097 22.4537 16.6201 22.4432 16.3107 22.3646C15.6228 22.1925 15.198 21.7411 15.0377 21.0163C14.9842 20.7763 14.9701 20.586 14.9772 20.2327C14.9842 19.9413 15.018 19.6016 15.0433 19.5714C15.0489 19.5654 15.1024 19.5533 15.1643 19.5442C15.4203 19.5065 15.7114 19.4053 15.9942 19.2528C16.2024 19.1426 16.3191 19.0565 16.4387 18.9267C16.5611 18.7923 16.6441 18.6519 16.7003 18.4798C16.7369 18.365 16.7397 18.3439 16.7397 18.1023C16.7397 17.8079 16.7172 17.6856 16.6159 17.4259C16.5597 17.2825 16.5357 17.2477 16.5357 17.3096Z" fill="white"/>
<defs>
<linearGradient id="paint0_linear_1529_414" x1="5.16895" y1="23.9497" x2="5.16895" y2="32.9497" gradientUnits="userSpaceOnUse">
<stop stop-color="#4C3DAA"/>
<stop offset="0.395" stop-color="#5842DE"/>
<stop offset="0.605" stop-color="#614BEC"/>
<stop offset="0.83" stop-color="#4535A5"/>
</linearGradient>
<linearGradient id="paint1_linear_1529_414" x1="5.16895" y1="23.9497" x2="5.16895" y2="32.9497" gradientUnits="userSpaceOnUse">
<stop stop-color="#4C3DAA"/>
<stop offset="0.395" stop-color="#5842DE"/>
<stop offset="0.605" stop-color="#614BEC"/>
<stop offset="0.83" stop-color="#4535A5"/>
</linearGradient>
<linearGradient id="paint2_linear_1529_414" x1="31.3976" y1="29.8474" x2="40.2789" y2="28.3906" gradientUnits="userSpaceOnUse">
<stop stop-color="#4C3DAA"/>
<stop offset="0.395" stop-color="#5842DE"/>
<stop offset="0.605" stop-color="#614BEC"/>
<stop offset="0.83" stop-color="#4535A5"/>
</linearGradient>
<linearGradient id="paint3_linear_1529_414" x1="31.3976" y1="29.8474" x2="40.2789" y2="28.3906" gradientUnits="userSpaceOnUse">
<stop stop-color="#4C3DAA"/>
<stop offset="0.395" stop-color="#5842DE"/>
<stop offset="0.605" stop-color="#614BEC"/>
<stop offset="0.83" stop-color="#4535A5"/>
</linearGradient>
<linearGradient id="paint4_linear_1529_414" x1="20.6691" y1="0.949707" x2="20.6691" y2="34.9499" gradientUnits="userSpaceOnUse">
<stop stop-color="#4C3DAA"/>
<stop offset="0.395" stop-color="#5842DE"/>
<stop offset="0.605" stop-color="#614BEC"/>
<stop offset="0.83" stop-color="#4535A5"/>
</linearGradient>
<linearGradient id="paint5_linear_1529_414" x1="20.6691" y1="0.949707" x2="20.6691" y2="34.9499" gradientUnits="userSpaceOnUse">
<stop stop-color="#6457FB"/>
<stop offset="0.615" stop-color="#967EF6"/>
<stop offset="1" stop-color="#6E3DFB"/>
</linearGradient>
</defs>
</svg>
