<svg width="31" height="31" viewBox="0 0 31 31" fill="none" xmlns="http://www.w3.org/2000/svg">
<mask id="mask0_1518_2720" style="mask-type:alpha" maskUnits="userSpaceOnUse" x="0" y="0" width="31" height="31">
<path d="M11.0151 1.00169L3.33748 3.57878C3.07144 3.66808 2.85516 3.86506 2.74146 4.12162L0.894529 8.28905C0.754807 8.60432 0.787381 8.96934 0.98072 9.25489L14.8419 29.7267C15.2385 30.3125 16.1013 30.3125 16.498 29.7267L30.3591 9.25489C30.5525 8.96934 30.585 8.60433 30.4453 8.28905L28.5984 4.12162C28.4847 3.86506 28.2684 3.66808 28.0024 3.57878L20.3248 1.00169C20.2222 0.967262 20.1148 0.949707 20.0066 0.949707H11.3333C11.2251 0.949707 11.1176 0.967263 11.0151 1.00169Z" fill="#2188FF"/>
</mask>
<g mask="url(#mask0_1518_2720)">
<path d="M2.91992 3.71894L11.1699 0.949707H20.1699L28.4199 3.71894L30.6699 8.79586L15.6699 30.9497L0.669922 8.79586L2.91992 3.71894Z" fill="#C6CAD1"/>
<path d="M15.6699 30.9497L30.6699 8.7959L22.4199 11.5651L15.6699 30.9497Z" fill="white" fill-opacity="0.4"/>
<path d="M20.1699 6.02644L28.4199 3.71875L30.6699 8.79568L22.4199 11.5649L20.1699 6.02644Z" fill="white" fill-opacity="0.5"/>
<path d="M22.4199 11.5649H8.91992L15.6699 30.9495L22.4199 11.5649Z" fill="white" fill-opacity="0.1"/>
<path d="M11.1699 6.02686H20.1699L22.4199 11.5653H8.91992L11.1699 6.02686Z" fill="white" fill-opacity="0.3"/>
<path d="M11.1699 0.949707L2.91992 3.71894L11.1699 6.02663H20.1699L28.4199 3.71894L20.1699 0.949707H11.1699Z" fill="white" fill-opacity="0.1"/>
<path d="M0.669922 8.7959L15.6699 30.9497L8.91992 11.5651L0.669922 8.7959Z" fill="black" fill-opacity="0.2"/>
<path d="M2.91992 3.71875L11.1699 6.02644L8.91992 11.5649L0.669922 8.79568L2.91992 3.71875Z" fill="black" fill-opacity="0.3"/>
<path d="M10.856 0.52768L3.17838 3.10477C2.77931 3.23872 2.4549 3.53419 2.28434 3.91903L0.43741 8.08647C0.227827 8.55937 0.276687 9.10689 0.566696 9.53521L14.4278 30.0071C15.0228 30.8858 16.317 30.8858 16.912 30.0071L30.7731 9.53522C31.0632 9.1069 31.112 8.55937 30.9024 8.08647L29.0555 3.91903C28.8849 3.53419 28.5605 3.23872 28.1615 3.10477L20.4839 0.52768C20.33 0.47604 20.1688 0.449707 20.0066 0.449707H11.3333C11.171 0.449707 11.0098 0.47604 10.856 0.52768Z" stroke="black" stroke-linecap="round" stroke-linejoin="round"/>
</g>
</svg>
