<svg width="45" height="45" viewBox="0 0 45 45" fill="none" xmlns="http://www.w3.org/2000/svg">
<path d="M45 22.5C45 34.9264 34.9264 45 22.5 45C10.0736 45 0 34.9264 0 22.5C0 10.0736 10.0736 0 22.5 0C34.9264 0 45 10.0736 45 22.5ZM6.57103 22.5C6.57103 31.2973 13.7027 38.429 22.5 38.429C31.2973 38.429 38.429 31.2973 38.429 22.5C38.429 13.7027 31.2973 6.57103 22.5 6.57103C13.7027 6.57103 6.57103 13.7027 6.57103 22.5Z" fill="url(#paint0_linear_1111_6876)"/>
<ellipse cx="22.3125" cy="22.3125" rx="16.3125" ry="16.3125" fill="#020714"/>
<path d="M23.4596 23.2939H21.5404C16.7892 23.2939 12.9375 27.1456 12.9375 31.8969C12.9375 36.6482 16.7892 40.4998 21.5404 40.4998H23.4596C28.2108 40.4998 32.0625 36.6482 32.0625 31.8969C32.0625 27.1456 28.2108 23.2939 23.4596 23.2939Z" stroke="url(#paint1_linear_1111_6876)" stroke-width="5"/>
<ellipse cx="18.6048" cy="31.4667" rx="1.77083" ry="2.15074" fill="url(#paint2_linear_1111_6876)"/>
<ellipse cx="26.0423" cy="31.4667" rx="1.77083" ry="2.15074" fill="url(#paint3_linear_1111_6876)"/>
<path d="M28.1258 21.0767L27.0531 22.5657C26.7031 23.0515 26.8556 23.7339 27.379 24.0245L28.4518 24.6201C29.1183 24.9902 29.9372 24.5082 29.9372 23.7458V21.6613C29.9372 20.6905 28.6933 20.2891 28.1258 21.0767Z" fill="url(#paint4_linear_1111_6876)" stroke="url(#paint5_linear_1111_6876)"/>
<path d="M15.5735 21.3719L15.8443 23.5244C15.937 24.2611 16.5965 24.6958 17.1442 24.3812L18.3177 23.7072C18.8991 23.3733 18.9847 22.4162 18.4795 21.8991L17.0351 20.4205C16.3954 19.7657 15.4489 20.3818 15.5735 21.3719Z" fill="url(#paint6_linear_1111_6876)" stroke="url(#paint7_linear_1111_6876)"/>
<path d="M22.9594 16.0715V21.2245C22.9594 21.6754 22.5939 22.0409 22.1431 22.0409C22.0867 22.0409 22.041 21.9952 22.041 21.9388V16.0715C22.041 15.8179 22.2466 15.6123 22.5002 15.6123C22.7538 15.6123 22.9594 15.8179 22.9594 16.0715Z" stroke="url(#paint8_linear_1111_6876)"/>
<defs>
<linearGradient id="paint0_linear_1111_6876" x1="0" y1="0" x2="54.0489" y2="4.26846" gradientUnits="userSpaceOnUse">
<stop stop-color="#9156F2"/>
<stop offset="0.734" stop-color="#C61ED4"/>
</linearGradient>
<linearGradient id="paint1_linear_1111_6876" x1="12.9375" y1="23.2939" x2="35.8748" y2="25.3074" gradientUnits="userSpaceOnUse">
<stop stop-color="#9156F2"/>
<stop offset="0.734" stop-color="#C61ED4"/>
</linearGradient>
<linearGradient id="paint2_linear_1111_6876" x1="16.834" y1="29.3159" x2="21.0963" y2="29.5931" gradientUnits="userSpaceOnUse">
<stop stop-color="#9156F2"/>
<stop offset="0.734" stop-color="#C61ED4"/>
</linearGradient>
<linearGradient id="paint3_linear_1111_6876" x1="24.2715" y1="29.3159" x2="28.5338" y2="29.5931" gradientUnits="userSpaceOnUse">
<stop stop-color="#9156F2"/>
<stop offset="0.734" stop-color="#C61ED4"/>
</linearGradient>
<linearGradient id="paint4_linear_1111_6876" x1="26.3955" y1="18.5625" x2="30.6688" y2="18.7362" gradientUnits="userSpaceOnUse">
<stop stop-color="#9156F2"/>
<stop offset="0.734" stop-color="#C61ED4"/>
</linearGradient>
<linearGradient id="paint5_linear_1111_6876" x1="26.3955" y1="18.5625" x2="30.6688" y2="18.7362" gradientUnits="userSpaceOnUse">
<stop stop-color="#9156F2"/>
<stop offset="0.734" stop-color="#C61ED4"/>
</linearGradient>
<linearGradient id="paint6_linear_1111_6876" x1="12.9375" y1="21.8516" x2="16.4579" y2="18.7378" gradientUnits="userSpaceOnUse">
<stop stop-color="#9156F2"/>
<stop offset="0.734" stop-color="#C61ED4"/>
</linearGradient>
<linearGradient id="paint7_linear_1111_6876" x1="12.9375" y1="21.8516" x2="16.4579" y2="18.7378" gradientUnits="userSpaceOnUse">
<stop stop-color="#9156F2"/>
<stop offset="0.734" stop-color="#C61ED4"/>
</linearGradient>
<linearGradient id="paint8_linear_1111_6876" x1="22.041" y1="15.6123" x2="23.1508" y2="15.6248" gradientUnits="userSpaceOnUse">
<stop stop-color="#9156F2"/>
<stop offset="0.734" stop-color="#C61ED4"/>
</linearGradient>
</defs>
</svg>
